<?xml version="1.0" encoding="utf-8"?>
<svg xmlns="http://www.w3.org/2000/svg"
     width="140.0000mm" height="161.0000mm"
     viewBox="0 0 140.0000 161.0000">
  <rect x="5.0000" y="5.0000" width="130.0000" height="151.0000" rx="8.0000" ry="8.0000"  fill="#FAFAFA" stroke="none" />
  <path d="M 14.4700 8.4700 L 46.0600 8.4700 A 1.4700 1.4700 0 0 1 47.5300 9.9400 L 47.5300 25.0600 A 1.4700 1.4700 0 0 1 46.0600 26.5300 L 9.9400 26.5300 A 1.4700 1.4700 0 0 1 8.4700 25.0600 L 8.4700 14.4700 A 6.0000 6.0000 0 0 1 14.4700 8.4700 Z"  fill="#FFFFFF" stroke="#2E2E2E" stroke-width="0.5" />
  <text x="28.0000" y="17.5000" font-family="Swis721 Blk BT, comic sans ms" font-size="5.0000" text-anchor="middle" dominant-baseline="middle" fill="#1A1A1A">box_1</text>
  <path d="M 51.9400 8.4700 L 88.0600 8.4700 A 1.4700 1.4700 0 0 1 89.5300 9.9400 L 89.5300 25.0600 A 1.4700 1.4700 0 0 1 88.0600 26.5300 L 51.9400 26.5300 A 1.4700 1.4700 0 0 1 50.4700 25.0600 L 50.4700 9.9400 A 1.4700 1.4700 0 0 1 51.9400 8.4700 Z"  fill="#FFFFFF" stroke="#2E2E2E" stroke-width="0.5" />
  <text x="70.0000" y="17.5000" font-family="Swis721 Blk BT, comic sans ms" font-size="5.0000" text-anchor="middle" dominant-baseline="middle" fill="#1A1A1A">box_2</text>
  <path d="M 93.9400 8.4700 L 125.5300 8.4700 A 6.0000 6.0000 0 0 1 131.5300 14.4700 L 131.5300 25.0600 A 1.4700 1.4700 0 0 1 130.0600 26.5300 L 93.9400 26.5300 A 1.4700 1.4700 0 0 1 92.4700 25.0600 L 92.4700 9.9400 A 1.4700 1.4700 0 0 1 93.9400 8.4700 Z"  fill="#FFFFFF" stroke="#2E2E2E" stroke-width="0.5" />
  <text x="112.0000" y="17.5000" font-family="Swis721 Blk BT, comic sans ms" font-size="5.0000" text-anchor="middle" dominant-baseline="middle" fill="#1A1A1A">box_3</text>
  <path d="M 9.9400 29.4700 L 46.0600 29.4700 A 1.4700 1.4700 0 0 1 47.5300 30.9400 L 47.5300 67.0600 A 1.4700 1.4700 0 0 1 46.0600 68.5300 L 9.9400 68.5300 A 1.4700 1.4700 0 0 1 8.4700 67.0600 L 8.4700 30.9400 A 1.4700 1.4700 0 0 1 9.9400 29.4700 Z"  fill="#FFFFFF" stroke="#2E2E2E" stroke-width="0.5" />
  <text x="28.0000" y="49.0000" font-family="Swis721 Blk BT, comic sans ms" font-size="5.0000" text-anchor="middle" dominant-baseline="middle" fill="#1A1A1A">box_4</text>
  <path d="M 51.9400 29.4700 L 88.0600 29.4700 A 1.4700 1.4700 0 0 1 89.5300 30.9400 L 89.5300 67.0600 A 1.4700 1.4700 0 0 1 88.0600 68.5300 L 51.9400 68.5300 A 1.4700 1.4700 0 0 1 50.4700 67.0600 L 50.4700 30.9400 A 1.4700 1.4700 0 0 1 51.9400 29.4700 Z"  fill="#FFFFFF" stroke="#2E2E2E" stroke-width="0.5" />
  <text x="70.0000" y="49.0000" font-family="Swis721 Blk BT, comic sans ms" font-size="5.0000" text-anchor="middle" dominant-baseline="middle" fill="#1A1A1A">box_5</text>
  <path d="M 93.9400 29.4700 L 130.0600 29.4700 A 1.4700 1.4700 0 0 1 131.5300 30.9400 L 131.5300 67.0600 A 1.4700 1.4700 0 0 1 130.0600 68.5300 L 93.9400 68.5300 A 1.4700 1.4700 0 0 1 92.4700 67.0600 L 92.4700 30.9400 A 1.4700 1.4700 0 0 1 93.9400 29.4700 Z"  fill="#FFFFFF" stroke="#2E2E2E" stroke-width="0.5" />
  <text x="112.0000" y="49.0000" font-family="Swis721 Blk BT, comic sans ms" font-size="5.0000" text-anchor="middle" dominant-baseline="middle" fill="#1A1A1A">box_6</text>
  <path d="M 9.9400 71.4700 L 46.0600 71.4700 A 1.4700 1.4700 0 0 1 47.5300 72.9400 L 47.5300 109.0600 A 1.4700 1.4700 0 0 1 46.0600 110.5300 L 9.9400 110.5300 A 1.4700 1.4700 0 0 1 8.4700 109.0600 L 8.4700 72.9400 A 1.4700 1.4700 0 0 1 9.9400 71.4700 Z"  fill="#FFFFFF" stroke="#2E2E2E" stroke-width="0.5" />
  <text x="28.0000" y="91.0000" font-family="Swis721 Blk BT, comic sans ms" font-size="5.0000" text-anchor="middle" dominant-baseline="middle" fill="#1A1A1A">box_7</text>
  <path d="M 51.9400 71.4700 L 88.0600 71.4700 A 1.4700 1.4700 0 0 1 89.5300 72.9400 L 89.5300 109.0600 A 1.4700 1.4700 0 0 1 88.0600 110.5300 L 51.9400 110.5300 A 1.4700 1.4700 0 0 1 50.4700 109.0600 L 50.4700 72.9400 A 1.4700 1.4700 0 0 1 51.9400 71.4700 Z"  fill="#FFFFFF" stroke="#2E2E2E" stroke-width="0.5" />
  <text x="70.0000" y="91.0000" font-family="Swis721 Blk BT, comic sans ms" font-size="5.0000" text-anchor="middle" dominant-baseline="middle" fill="#1A1A1A">box_8</text>
  <path d="M 93.9400 71.4700 L 130.0600 71.4700 A 1.4700 1.4700 0 0 1 131.5300 72.9400 L 131.5300 109.0600 A 1.4700 1.4700 0 0 1 130.0600 110.5300 L 93.9400 110.5300 A 1.4700 1.4700 0 0 1 92.4700 109.0600 L 92.4700 72.9400 A 1.4700 1.4700 0 0 1 93.9400 71.4700 Z"  fill="#FFFFFF" stroke="#2E2E2E" stroke-width="0.5" />
  <text x="112.0000" y="91.0000" font-family="Swis721 Blk BT, comic sans ms" font-size="5.0000" text-anchor="middle" dominant-baseline="middle" fill="#1A1A1A">box_9</text>
  <path d="M 9.9400 113.4700 L 46.0600 113.4700 A 1.4700 1.4700 0 0 1 47.5300 114.9400 L 47.5300 151.0600 A 1.4700 1.4700 0 0 1 46.0600 152.5300 L 14.4700 152.5300 A 6.0000 6.0000 0 0 1 8.4700 146.5300 L 8.4700 114.9400 A 1.4700 1.4700 0 0 1 9.9400 113.4700 Z"  fill="#FFFFFF" stroke="#2E2E2E" stroke-width="0.5" />
  <text x="28.0000" y="133.0000" font-family="Swis721 Blk BT, comic sans ms" font-size="5.0000" text-anchor="middle" dominant-baseline="middle" fill="#1A1A1A">box_10</text>
  <path d="M 51.9400 113.4700 L 88.0600 113.4700 A 1.4700 1.4700 0 0 1 89.5300 114.9400 L 89.5300 151.0600 A 1.4700 1.4700 0 0 1 88.0600 152.5300 L 51.9400 152.5300 A 1.4700 1.4700 0 0 1 50.4700 151.0600 L 50.4700 114.9400 A 1.4700 1.4700 0 0 1 51.9400 113.4700 Z"  fill="#FFFFFF" stroke="#2E2E2E" stroke-width="0.5" />
  <text x="70.0000" y="133.0000" font-family="Swis721 Blk BT, comic sans ms" font-size="5.0000" text-anchor="middle" dominant-baseline="middle" fill="#1A1A1A">box_11</text>
  <path d="M 93.9400 113.4700 L 130.0600 113.4700 A 1.4700 1.4700 0 0 1 131.5300 114.9400 L 131.5300 146.5300 A 6.0000 6.0000 0 0 1 125.5300 152.5300 L 93.9400 152.5300 A 1.4700 1.4700 0 0 1 92.4700 151.0600 L 92.4700 114.9400 A 1.4700 1.4700 0 0 1 93.9400 113.4700 Z"  fill="#FFFFFF" stroke="#2E2E2E" stroke-width="0.5" />
  <text x="112.0000" y="133.0000" font-family="Swis721 Blk BT, comic sans ms" font-size="5.0000" text-anchor="middle" dominant-baseline="middle" fill="#1A1A1A">box_12</text>
  <rect x="5.0000" y="5.0000" width="130.0000" height="151.0000" rx="8.0000" ry="8.0000"  fill="none" stroke="#1A1A1A" stroke-width="0.8" />
</svg>
