<?xml version="1.0" encoding="utf-8"?>
<svg xmlns="http://www.w3.org/2000/svg"
     width="110.0000mm" height="169.0000mm"
     viewBox="0 0 110.0000 169.0000">
  <rect x="5.0000" y="5.0000" width="100.0000" height="159.0000" rx="8.0000" ry="8.0000"  fill="#FAFAFA" stroke="none" />
  <text x="55.0000" y="23.5000" font-family="Swis721 Blk BT, comic sans ms" font-size="14.0000" font-weight="bold" text-anchor="middle" dominant-baseline="middle" fill="#111111">Prototyping</text>
  <text x="55.0000" y="41.0000" font-family="Swis721 Blk BT, comic sans ms" font-size="14.0000" font-weight="bold" text-anchor="middle" dominant-baseline="middle" fill="#111111">Tin</text>
  <rect x="12.0000" y="64.3250" width="86.0000" height="0.3500"  fill="#BBBBBB" stroke="none" />
  <rect x="12.0000" y="75.3250" width="86.0000" height="0.3500"  fill="#BBBBBB" stroke="none" />
  <rect x="12.0000" y="86.3250" width="86.0000" height="0.3500"  fill="#BBBBBB" stroke="none" />
  <rect x="12.0000" y="97.3250" width="86.0000" height="0.3500"  fill="#BBBBBB" stroke="none" />
  <rect x="5.0000" y="114.0000" width="60.0000" height="14.0000"  fill="#F0F0F0" stroke="none" />
  <rect x="65.0000" y="114.0000" width="40.0000" height="14.0000"  fill="#1C1C1C" stroke="none" />
  <text x="85.0000" y="121.0000" font-family="Swis721 Blk BT, comic sans ms" font-size="7.0000" font-weight="bold" text-anchor="middle" dominant-baseline="middle" fill="#FFFFFF">Contents</text>
  <rect x="5.0000" y="113.8000" width="100.0000" height="0.4000"  fill="#2E2E2E" stroke="none" />
  <rect x="5.0000" y="127.8000" width="100.0000" height="0.4000"  fill="#2E2E2E" stroke="none" />
  <rect x="5.0000" y="145.8000" width="100.0000" height="0.4000"  fill="#2E2E2E" stroke="none" />
  <rect x="64.8000" y="114.0000" width="0.4000" height="14.0000"  fill="#2E2E2E" stroke="none" />
  <rect x="38.1333" y="128.0000" width="0.4000" height="36.0000"  fill="#2E2E2E" stroke="none" />
  <rect x="71.4667" y="128.0000" width="0.4000" height="36.0000"  fill="#2E2E2E" stroke="none" />
  <rect x="5.0000" y="5.0000" width="100.0000" height="159.0000" rx="8.0000" ry="8.0000"  fill="none" stroke="#1A1A1A" stroke-width="0.8" />
</svg>
