<?xml version="1.0" encoding="UTF-8"?>
<!DOCTYPE svg PUBLIC "-//W3C//DTD SVG 1.0//EN" "http://www.w3.org/TR/2001/REC-SVG-20010904/DTD/svg10.dtd">
<!-- Creator: CorelDRAW X6 -->
<svg xmlns="http://www.w3.org/2000/svg" xml:space="preserve" width="21.5837mm" height="4.8832mm" version="1.0" style="shape-rendering:geometricPrecision; text-rendering:geometricPrecision; image-rendering:optimizeQuality; fill-rule:evenodd; clip-rule:evenodd"
viewBox="0 0 194 44"
 xmlns:xlink="http://www.w3.org/1999/xlink">
 <defs>
  <style type="text/css">
   <![CDATA[
    .str0 {stroke:black;stroke-width:0.686471}
    .fil0 {fill:none;fill-rule:nonzero}
   ]]>
  </style>
 </defs>
 <g id="Layer_x0020_1">
  <metadata id="CorelCorpID_0Corel-Layer"/>
  <path class="fil0 str0" d="M24 20c-1,-1 -2,-1 -3,-2 -1,0 -3,-1 -4,-1 -2,0 -3,0 -5,1 -1,1 -2,1 -3,3 0,1 -1,2 -1,3 0,1 0,3 0,5l0 14 -8 0 0 -31 8 0 0 5c1,-2 2,-3 4,-4 2,-1 4,-1 6,-1 1,0 2,0 3,0 1,0 2,1 3,1l0 8zm20 2c-2,0 -3,1 -4,2 -1,1 -1,3 -1,6 0,2 0,4 1,6 1,1 2,2 4,2 2,0 3,-1 4,-2 1,-1 1,-3 1,-6 0,-2 0,-4 -1,-6 -1,-1 -2,-2 -4,-2zm11 -20l0 7c-1,-1 -3,-1 -4,-2 -1,0 -3,-1 -4,-1 -3,0 -5,1 -7,3 -2,2 -2,5 -2,9 1,-1 2,-2 3,-3 1,-1 3,-1 5,-1 4,0 7,1 9,4 2,2 3,6 3,10 0,5 -1,8 -3,11 -2,3 -6,4 -10,4 -5,0 -9,-2 -11,-5 -2,-3 -3,-9 -3,-17 0,-7 1,-13 4,-16 3,-4 7,-5 13,-5 1,0 3,0 4,0 1,0 3,1 4,1zm23 15c-2,0 -3,1 -5,3 -1,2 -2,4 -2,7 0,3 1,5 2,7 1,2 3,3 5,3 2,0 4,-1 5,-3 1,-2 2,-4 2,-7 0,-3 -1,-5 -2,-7 -1,-2 -3,-3 -5,-3zm-14 10c0,-5 1,-9 4,-12 3,-3 6,-4 11,-4 4,0 8,1 11,4 3,3 4,7 4,12 0,5 -1,9 -4,12 -3,3 -6,4 -11,4 -4,0 -8,-1 -11,-4 -3,-3 -4,-7 -4,-12zm37 8l9 0 0 -27 -9 2 0 -7 9 -2 8 0 0 34 9 0 0 7 -26 0 0 -7zm43 -14c0,-1 0,-2 1,-2 1,-1 1,-1 2,-1 1,0 2,0 2,1 1,1 1,2 1,2 0,1 0,2 -1,2 -1,1 -2,1 -2,1 -1,0 -2,0 -2,-1 -1,-1 -1,-1 -1,-2zm3 -15c-2,0 -3,1 -4,3 -1,2 -1,6 -1,11 0,5 0,9 1,11 1,2 2,3 4,3 2,0 3,-1 4,-3 1,-2 1,-6 1,-11 0,-5 0,-9 -1,-11 -1,-2 -2,-3 -4,-3zm-14 15c0,-7 1,-13 3,-16 2,-4 6,-5 10,-5 5,0 8,2 10,5 2,4 3,9 3,16 0,7 -1,13 -3,16 -2,4 -6,5 -10,5 -5,0 -8,-2 -10,-5 -2,-4 -3,-9 -3,-16zm43 14l18 0 0 7 -26 0 0 -7 4 -5c5,-6 9,-9 10,-10 1,-2 2,-3 3,-4 1,-1 1,-2 1,-4 0,-2 -1,-3 -2,-4 -1,-1 -3,-2 -5,-2 -1,0 -3,0 -5,1 -2,1 -4,1 -6,3l0 -8c2,-1 4,-1 6,-2 2,0 4,-1 5,-1 4,0 8,1 10,3 3,2 4,5 4,8 0,2 0,3 -1,5 -1,1 -1,3 -3,5 -1,1 -4,4 -8,9 -2,2 -4,4 -6,6z"/>
 </g>
</svg>
