<?xml version="1.0" standalone="no"?>
<!DOCTYPE svg PUBLIC "-//W3C//DTD SVG 1.1//EN" "http://www.w3.org/Graphics/SVG/1.1/DTD/svg11.dtd">
<svg width="70mm" height="69mm" viewBox="91 -166 70 69" xmlns="http://www.w3.org/2000/svg" version="1.1">
<title>OpenSCAD Model</title>
<path d="
M 160.704,-160.708 L 160.677,-160.779 L 160.676,-160.781 L 160.547,-161.059 L 160.545,-161.064 L 160.511,-161.132
 L 160.51,-161.134 L 160.354,-161.399 L 160.351,-161.404 L 160.311,-161.469 L 160.31,-161.47 L 160.13,-161.716
 L 160.126,-161.721 L 160.08,-161.782 L 160.08,-161.782 L 159.876,-162.01 L 159.872,-162.015 L 159.821,-162.071
 L 159.82,-162.071 L 159.593,-162.279 L 159.588,-162.284 L 159.532,-162.335 L 159.531,-162.335 L 159.286,-162.519
 L 159.22,-162.569 L 158.951,-162.732 L 158.886,-162.772 L 158.604,-162.907 L 158.535,-162.94 L 158.457,-162.969
 L 158.168,-163.075 L 158.095,-163.094 L 157.812,-163.168 L 157.141,-163.311 L 157.099,-163.115 L 146.34,-165.405
 L 146.382,-165.601 L 145.711,-165.744 L 144.711,-165.744 L 144.711,-164.744 L 146.711,-164.744 L 146.837,-164.733
 L 146.906,-164.727 L 146.928,-164.725 L 147.139,-164.668 L 147.336,-164.576 L 147.514,-164.451 L 147.669,-164.297
 L 147.794,-164.119 L 147.886,-163.921 L 147.942,-163.711 L 147.961,-163.494 L 147.942,-163.277 L 147.886,-163.066
 L 147.794,-162.869 L 147.669,-162.69 L 147.595,-162.61 L 145.479,-160.494 L 160.782,-160.494 z
M 155.779,-97.4938 L 155.946,-97.5025 L 155.998,-97.506 L 155.999,-97.5061 L 156.214,-97.5439 L 156.218,-97.5447
 L 156.269,-97.5549 L 156.27,-97.5551 L 156.477,-97.6224 L 156.531,-97.6407 L 156.727,-97.7363 L 156.779,-97.7617
 L 156.827,-97.7937 L 157.007,-97.9154 L 157.05,-97.9534 L 157.212,-98.099 L 157.213,-98.0995 L 157.247,-98.1388
 L 157.25,-98.1423 L 157.39,-98.309 L 157.391,-98.3098 L 157.42,-98.3533 L 157.422,-98.3568 L 157.537,-98.5414
 L 157.538,-98.5426 L 157.561,-98.5896 L 157.563,-98.593 L 157.651,-98.7918 L 157.652,-98.7935 L 157.669,-98.843
 L 157.67,-98.8463 L 157.73,-99.0556 L 157.73,-99.0576 L 157.74,-99.1089 L 157.741,-99.112 L 157.771,-99.3275
 L 157.771,-99.33 L 157.775,-99.3822 L 157.779,-99.4938 L 157.779,-102.882 L 154.779,-103.382 L 154.779,-106.663
 L 159.308,-107.418 L 159.432,-107.444 L 159.481,-107.455 L 159.483,-107.456 L 159.69,-107.523 L 159.694,-107.524
 L 159.741,-107.542 L 159.743,-107.543 L 159.938,-107.638 L 159.942,-107.64 L 159.987,-107.664 L 159.988,-107.664
 L 160.169,-107.786 L 160.172,-107.789 L 160.214,-107.818 L 160.215,-107.818 L 160.378,-107.965 L 160.419,-108.003
 L 160.455,-108.046 L 160.594,-108.211 L 160.625,-108.259 L 160.74,-108.443 L 160.74,-108.444 L 160.762,-108.49
 L 160.764,-108.494 L 160.853,-108.693 L 160.853,-108.694 L 160.869,-108.742 L 160.87,-108.746 L 160.93,-108.955
 L 160.931,-108.957 L 160.941,-109.007 L 160.941,-109.01 L 160.971,-109.226 L 160.972,-109.228 L 160.975,-109.279
 L 160.979,-109.391 L 160.979,-158.994 L 142.91,-158.994 L 142.816,-158.986 L 142.763,-158.981 L 142.736,-158.979
 L 142.568,-158.933 L 142.41,-158.86 L 142.267,-158.76 L 142.144,-158.637 L 142.044,-158.494 L 141.97,-158.336
 L 141.925,-158.167 L 141.91,-157.994 L 141.925,-157.82 L 141.97,-157.652 L 142.044,-157.494 L 142.144,-157.351
 L 142.267,-157.228 L 142.41,-157.128 L 142.452,-157.105 L 143.408,-156.59 L 144.346,-156.041 L 145.264,-155.46
 L 146.16,-154.846 L 147.034,-154.2 L 147.885,-153.524 L 148.711,-152.817 L 149.511,-152.082 L 150.284,-151.319
 L 151.03,-150.529 L 151.747,-149.713 L 152.435,-148.871 L 153.092,-148.006 L 153.718,-147.118 L 154.312,-146.208
 L 154.873,-145.277 L 155.401,-144.328 L 155.894,-143.359 L 156.353,-142.374 L 156.776,-141.374 L 157.164,-140.359
 L 157.515,-139.33 L 157.829,-138.29 L 158.106,-137.239 L 158.345,-136.179 L 158.546,-135.112 L 158.71,-134.037
 L 158.834,-132.958 L 158.921,-131.875 L 158.968,-130.789 L 158.977,-129.703 L 158.948,-128.617 L 158.879,-127.532
 L 158.772,-126.451 L 158.627,-125.374 L 158.443,-124.303 L 158.221,-123.239 L 157.962,-122.184 L 157.665,-121.139
 L 157.331,-120.105 L 156.961,-119.084 L 156.554,-118.076 L 156.112,-117.083 L 155.634,-116.107 L 155.122,-115.149
 L 154.577,-114.209 L 153.998,-113.29 L 153.387,-112.391 L 152.744,-111.515 L 152.07,-110.663 L 151.367,-109.835
 L 150.634,-109.032 L 149.873,-108.256 L 149.085,-107.508 L 148.271,-106.788 L 147.432,-106.098 L 146.569,-105.438
 L 145.683,-104.809 L 144.775,-104.212 L 143.846,-103.648 L 142.898,-103.118 L 141.932,-102.621 L 140.948,-102.159
 L 139.949,-101.733 L 138.935,-101.342 L 137.907,-100.988 L 136.868,-100.67 L 135.818,-100.39 L 134.759,-100.147
 L 133.692,-99.9427 L 132.618,-99.776 L 131.539,-99.6477 L 130.457,-99.558 L 129.371,-99.5068 L 128.285,-99.4944
 L 127.198,-99.5207 L 126.114,-99.5856 L 125.032,-99.6891 L 123.955,-99.8311 L 122.883,-100.011 L 121.819,-100.23
 L 120.763,-100.486 L 119.717,-100.779 L 118.682,-101.11 L 117.659,-101.477 L 116.65,-101.881 L 115.656,-102.32
 L 114.679,-102.794 L 113.719,-103.303 L 112.777,-103.846 L 111.856,-104.422 L 110.956,-105.03 L 110.077,-105.67
 L 109.223,-106.341 L 108.392,-107.042 L 107.588,-107.772 L 106.809,-108.53 L 106.059,-109.316 L 105.336,-110.127
 L 104.643,-110.964 L 103.981,-111.825 L 103.349,-112.71 L 102.749,-113.616 L 102.182,-114.543 L 101.648,-115.489
 L 101.149,-116.454 L 100.684,-117.436 L 100.254,-118.434 L 99.8604,-119.447 L 99.5029,-120.473 L 99.1821,-121.511
 L 98.8986,-122.56 L 98.6525,-123.618 L 98.4444,-124.685 L 98.2743,-125.758 L 98.1426,-126.837 L 98.0494,-127.919
 L 97.9948,-129.004 L 97.9789,-130.091 L 98.0017,-131.177 L 98.0632,-132.262 L 98.1633,-133.344 L 98.3019,-134.422
 L 98.4787,-135.494 L 98.6937,-136.559 L 98.9464,-137.616 L 99.2367,-138.663 L 99.564,-139.699 L 99.9281,-140.723
 L 100.328,-141.733 L 100.764,-142.728 L 101.236,-143.707 L 101.741,-144.669 L 102.281,-145.612 L 102.854,-146.535
 L 103.459,-147.437 L 104.097,-148.318 L 104.765,-149.174 L 105.463,-150.007 L 106.191,-150.814 L 106.946,-151.595
 L 107.729,-152.348 L 108.539,-153.073 L 109.374,-153.769 L 110.233,-154.434 L 111.115,-155.068 L 112.019,-155.671
 L 112.944,-156.241 L 113.889,-156.778 L 114.852,-157.28 L 115.833,-157.749 L 116.829,-158.181 L 117.841,-158.578
 L 118.866,-158.939 L 119.903,-159.263 L 120.951,-159.55 L 122.008,-159.8 L 123.074,-160.011 L 124.147,-160.185
 L 125.225,-160.32 L 126.307,-160.416 L 127.392,-160.474 L 128.479,-160.494 L 142.979,-160.494 L 144.467,-161.982
 L 144.492,-162.011 L 144.521,-162.055 L 144.541,-162.104 L 144.552,-162.155 L 144.554,-162.207 L 144.547,-162.259
 L 144.532,-162.309 L 144.508,-162.355 L 144.476,-162.396 L 144.437,-162.432 L 144.393,-162.46 L 144.345,-162.48
 L 144.294,-162.491 L 144.254,-162.494 L 140.345,-162.494 L 140.345,-162.294 L 100.345,-162.294 L 100.345,-162.494
 L 95.9787,-162.494 L 95.5867,-162.475 L 95.1984,-162.417 L 94.8176,-162.322 L 94.448,-162.189 L 94.0932,-162.021
 L 93.7565,-161.82 L 93.4412,-161.586 L 93.1503,-161.322 L 92.8867,-161.031 L 92.6529,-160.716 L 92.4511,-160.379
 L 92.2832,-160.025 L 92.151,-159.655 L 92.0556,-159.274 L 91.998,-158.886 L 91.9787,-158.494 L 91.9787,-98.4938
 L 91.9878,-98.3893 L 91.9926,-98.3349 L 91.9939,-98.3201 L 92.0391,-98.1518 L 92.1127,-97.9938 L 92.2127,-97.851
 L 92.336,-97.7277 L 92.4787,-97.6277 L 92.6367,-97.5541 L 92.8051,-97.509 L 92.9787,-97.4938 L 93.1524,-97.509
 L 93.3208,-97.5541 L 93.4787,-97.6277 L 93.6215,-97.7277 L 93.7448,-97.851 L 93.8448,-97.9938 L 93.9184,-98.1518
 L 93.9557,-98.2804 L 94.2018,-99.4071 L 94.2391,-99.5358 L 94.3127,-99.6938 L 94.4127,-99.8366 L 94.536,-99.9598
 L 94.6788,-100.06 L 94.8367,-100.133 L 95.0051,-100.179 L 95.0759,-100.188 L 96.541,-100.34 L 96.6117,-100.35
 L 96.7801,-100.395 L 96.9381,-100.469 L 97.0809,-100.569 L 97.2041,-100.692 L 97.3041,-100.835 L 97.3666,-100.963
 L 97.8257,-102.111 L 97.8285,-102.119 L 97.8398,-102.161 L 97.8436,-102.204 L 97.8398,-102.247 L 97.8285,-102.29
 L 97.8101,-102.329 L 97.7851,-102.365 L 97.7543,-102.396 L 97.7186,-102.421 L 97.6791,-102.439 L 97.637,-102.45
 L 97.5936,-102.454 L 97.5687,-102.453 L 96.0887,-102.305 L 96.075,-102.304 L 96.0577,-102.307 L 96.041,-102.312
 L 96.0255,-102.32 L 96.0116,-102.33 L 95.9998,-102.343 L 95.9903,-102.358 L 95.9836,-102.374 L 95.9797,-102.391
 L 95.9787,-102.404 L 95.9787,-107.494 L 95.6765,-109.787 L 95.4096,-112.084 L 95.1781,-114.386 L 94.9822,-116.69
 L 94.8218,-118.998 L 94.6971,-121.307 L 94.6079,-123.619 L 94.5544,-125.931 L 94.5366,-128.244 L 94.5544,-130.557
 L 94.6079,-132.869 L 94.6971,-135.18 L 94.8218,-137.49 L 94.9822,-139.797 L 95.1781,-142.102 L 95.4096,-144.403
 L 95.6765,-146.701 L 95.9787,-148.994 L 95.9787,-149.744 L 95.9797,-149.766 L 95.9873,-149.808 L 96.0022,-149.849
 L 96.024,-149.887 L 96.052,-149.921 L 96.0854,-149.949 L 96.1231,-149.97 L 96.164,-149.985 L 96.207,-149.993
 L 96.2505,-149.993 L 96.2935,-149.985 L 96.3344,-149.97 L 96.3721,-149.949 L 96.4055,-149.921 L 96.4335,-149.887
 L 96.4553,-149.849 L 96.4702,-149.808 L 96.4778,-149.766 L 96.4787,-149.744 L 96.4787,-106.994 L 96.4807,-106.95
 L 96.4958,-106.864 L 96.5256,-106.782 L 96.5692,-106.707 L 96.6252,-106.64 L 96.692,-106.584 L 96.7674,-106.541
 L 96.8493,-106.511 L 96.9352,-106.496 L 96.9787,-106.494 L 100.481,-106.494 L 100.522,-106.492 L 100.608,-106.477
 L 100.69,-106.448 L 100.766,-106.405 L 100.833,-106.349 L 100.889,-106.283 L 100.933,-106.207 L 100.963,-106.125
 L 100.979,-106.04 L 100.981,-105.999 L 101.012,-104.637 L 101.078,-103.278 L 101.18,-101.92 L 101.317,-100.565
 L 101.489,-99.2148 L 101.521,-99.0595 L 101.546,-98.9461 L 101.565,-98.8924 L 101.639,-98.6879 L 101.639,-98.6872
 L 101.663,-98.6407 L 101.665,-98.6368 L 101.767,-98.4446 L 101.767,-98.4436 L 101.797,-98.4006 L 101.799,-98.3972
 L 101.927,-98.2212 L 101.928,-98.22 L 101.962,-98.1811 L 101.965,-98.1784 L 102.116,-98.0218 L 102.117,-98.0205
 L 102.157,-97.9864 L 102.159,-97.9843 L 102.331,-97.8503 L 102.332,-97.849 L 102.376,-97.8203 L 102.378,-97.8187
 L 102.567,-97.7099 L 102.569,-97.7086 L 102.616,-97.6858 L 102.618,-97.6847 L 102.82,-97.6032 L 102.823,-97.6022
 L 102.872,-97.5855 L 102.874,-97.5849 L 103.085,-97.5323 L 103.089,-97.5316 L 103.14,-97.5215 L 103.141,-97.5212
 L 103.358,-97.4984 L 103.362,-97.4981 L 103.414,-97.4948 L 103.469,-97.4938 z
M 98.9787,-149.744 L 98.9745,-149.889 L 98.9723,-149.925 L 98.972,-149.928 L 98.9386,-150.209 L 98.938,-150.212
 L 98.9316,-150.248 L 98.9308,-150.252 L 98.8645,-150.526 L 98.8636,-150.53 L 98.8529,-150.564 L 98.8517,-150.568
 L 98.7534,-150.833 L 98.7521,-150.836 L 98.7374,-150.869 L 98.7358,-150.873 L 98.6068,-151.124 L 98.6051,-151.127
 L 98.5866,-151.158 L 98.5846,-151.161 L 98.4268,-151.395 L 98.4248,-151.398 L 98.4027,-151.427 L 98.4003,-151.43
 L 98.2159,-151.644 L 98.2136,-151.647 L 98.1882,-151.673 L 98.1855,-151.675 L 97.9771,-151.866 L 97.9745,-151.868
 L 97.9462,-151.891 L 97.9432,-151.893 L 97.7138,-152.058 L 97.7109,-152.06 L 97.6801,-152.079 L 97.6768,-152.081
 L 97.4295,-152.217 L 97.4265,-152.219 L 97.3936,-152.234 L 97.3901,-152.236 L 97.1284,-152.342 L 97.1253,-152.343
 L 97.0908,-152.355 L 97.0871,-152.356 L 96.8147,-152.43 L 96.8114,-152.431 L 96.7758,-152.438 L 96.7719,-152.439
 L 96.4927,-152.481 L 96.4894,-152.481 L 96.4532,-152.484 L 96.4492,-152.484 L 96.167,-152.493 L 96.1637,-152.493
 L 96.1274,-152.491 L 96.1234,-152.491 L 95.8421,-152.466 L 95.8389,-152.466 L 95.803,-152.46 L 95.799,-152.459
 L 95.5227,-152.401 L 95.5196,-152.4 L 95.4846,-152.391 L 95.4807,-152.389 L 95.2132,-152.299 L 95.2102,-152.298
 L 95.1767,-152.284 L 95.1729,-152.282 L 94.918,-152.161 L 94.9152,-152.159 L 94.8835,-152.142 L 94.88,-152.139
 L 94.6412,-151.989 L 94.6386,-151.987 L 94.6092,-151.966 L 94.4787,-151.865 L 94.4787,-158.494 L 94.4798,-158.546
 L 94.4821,-158.575 L 94.5077,-158.786 L 94.5144,-158.814 L 94.5734,-159.017 L 94.5844,-159.044 L 94.6752,-159.235
 L 94.6902,-159.26 L 94.8106,-159.434 L 94.8292,-159.456 L 94.976,-159.609 L 94.9978,-159.628 L 95.1674,-159.755
 L 95.1917,-159.77 L 95.3794,-159.868 L 95.406,-159.879 L 95.6069,-159.946 L 95.6351,-159.953 L 95.8441,-159.987
 L 95.8741,-159.99 L 95.9787,-159.994 L 114.731,-159.994 L 113.725,-159.512 L 112.735,-158.996 L 111.763,-158.447
 L 110.811,-157.866 L 109.879,-157.252 L 108.968,-156.608 L 108.079,-155.933 L 107.213,-155.228 L 106.372,-154.495
 L 105.557,-153.733 L 104.767,-152.945 L 104.005,-152.13 L 103.27,-151.29 L 102.564,-150.425 L 101.888,-149.537
 L 101.243,-148.627 L 100.628,-147.696 L 100.046,-146.744 L 99.4957,-145.773 L 98.9787,-144.784 z
M 158.001,-144.739 L 157.491,-145.72 L 156.948,-146.683 L 156.372,-147.627 L 155.766,-148.552 L 155.129,-149.456
 L 154.462,-150.338 L 153.766,-151.197 L 153.041,-152.032 L 152.289,-152.843 L 151.51,-153.628 L 150.705,-154.386
 L 149.875,-155.117 L 149.022,-155.82 L 148.145,-156.494 L 158.479,-156.494 L 158.479,-143.742 z
M 154.491,-109.687 L 155.153,-110.564 L 155.785,-111.463 L 156.387,-112.383 L 156.958,-113.322 L 157.497,-114.28
 L 158.004,-115.255 L 158.479,-116.246 L 158.479,-109.612 L 153.8,-108.832 z
M 103.906,-99.9938 L 103.762,-101.195 L 103.648,-102.399 L 103.563,-103.605 L 103.507,-104.813 L 103.481,-106.022
 L 103.475,-106.174 L 103.473,-106.212 L 103.472,-106.215 L 103.436,-106.51 L 103.435,-106.514 L 103.429,-106.55
 L 103.428,-106.554 L 103.358,-106.842 L 103.357,-106.846 L 103.346,-106.882 L 103.345,-106.885 L 103.243,-107.163
 L 103.241,-107.168 L 103.227,-107.202 L 103.226,-107.205 L 103.092,-107.47 L 103.09,-107.474 L 103.072,-107.506
 L 103.07,-107.509 L 102.907,-107.757 L 102.905,-107.761 L 102.883,-107.791 L 102.881,-107.793 L 102.691,-108.021
 L 102.688,-108.025 L 102.663,-108.052 L 102.661,-108.054 L 102.447,-108.259 L 102.443,-108.262 L 102.415,-108.287
 L 102.413,-108.289 L 102.176,-108.468 L 102.172,-108.471 L 102.142,-108.492 L 102.14,-108.493 L 101.884,-108.644
 L 101.88,-108.647 L 101.847,-108.665 L 101.845,-108.666 L 101.574,-108.786 L 101.569,-108.789 L 101.534,-108.803
 L 101.533,-108.803 L 101.25,-108.892 L 101.244,-108.894 L 101.208,-108.904 L 101.207,-108.905 L 100.915,-108.961
 L 100.909,-108.962 L 100.873,-108.968 L 100.871,-108.968 L 100.575,-108.991 L 100.569,-108.991 L 100.532,-108.993
 L 100.481,-108.994 L 98.9787,-108.994 L 98.9787,-115.204 L 99.4957,-114.215 L 100.046,-113.244 L 100.628,-112.292
 L 101.243,-111.36 L 101.888,-110.45 L 102.564,-109.562 L 103.27,-108.698 L 104.005,-107.858 L 104.767,-107.043
 L 105.557,-106.254 L 106.372,-105.493 L 107.213,-104.759 L 108.079,-104.055 L 108.968,-103.38 L 109.879,-102.735
 L 110.811,-102.122 L 111.763,-101.54 L 112.735,-100.992 L 113.725,-100.476 L 114.731,-99.9938 z
M 142.226,-99.9938 L 143.181,-100.45 L 144.12,-100.936 L 145.043,-101.452 L 145.95,-101.998 L 146.838,-102.572
 L 147.707,-103.175 L 148.557,-103.805 L 149.386,-104.461 L 150.193,-105.145 L 150.978,-105.853 L 151.741,-106.587
 L 152.479,-107.344 L 152.479,-101.433 L 155.479,-100.933 L 155.479,-99.9938 z
" stroke="black" fill="lightgray" stroke-width="0.5"/>
</svg>
