  0
SECTION
  2
BLOCKS
  0
ENDSEC
  0
SECTION
  2
ENTITIES
  0
LINE
  8
0
 10
160.704
 20
160.708
 11
160.677
 21
160.779
  0
LINE
  8
0
 10
160.677
 20
160.779
 11
160.676
 21
160.781
  0
LINE
  8
0
 10
160.676
 20
160.781
 11
160.547
 21
161.059
  0
LINE
  8
0
 10
160.547
 20
161.059
 11
160.545
 21
161.064
  0
LINE
  8
0
 10
160.545
 20
161.064
 11
160.511
 21
161.132
  0
LINE
  8
0
 10
160.511
 20
161.132
 11
160.51
 21
161.134
  0
LINE
  8
0
 10
160.51
 20
161.134
 11
160.354
 21
161.399
  0
LINE
  8
0
 10
160.354
 20
161.399
 11
160.351
 21
161.404
  0
LINE
  8
0
 10
160.351
 20
161.404
 11
160.311
 21
161.469
  0
LINE
  8
0
 10
160.311
 20
161.469
 11
160.31
 21
161.47
  0
LINE
  8
0
 10
160.31
 20
161.47
 11
160.13
 21
161.716
  0
LINE
  8
0
 10
160.13
 20
161.716
 11
160.126
 21
161.721
  0
LINE
  8
0
 10
160.126
 20
161.721
 11
160.08
 21
161.782
  0
LINE
  8
0
 10
160.08
 20
161.782
 11
160.08
 21
161.782
  0
LINE
  8
0
 10
160.08
 20
161.782
 11
159.876
 21
162.01
  0
LINE
  8
0
 10
159.876
 20
162.01
 11
159.872
 21
162.015
  0
LINE
  8
0
 10
159.872
 20
162.015
 11
159.821
 21
162.071
  0
LINE
  8
0
 10
159.821
 20
162.071
 11
159.82
 21
162.071
  0
LINE
  8
0
 10
159.82
 20
162.071
 11
159.593
 21
162.279
  0
LINE
  8
0
 10
159.593
 20
162.279
 11
159.588
 21
162.284
  0
LINE
  8
0
 10
159.588
 20
162.284
 11
159.532
 21
162.335
  0
LINE
  8
0
 10
159.532
 20
162.335
 11
159.531
 21
162.335
  0
LINE
  8
0
 10
159.531
 20
162.335
 11
159.286
 21
162.519
  0
LINE
  8
0
 10
159.286
 20
162.519
 11
159.22
 21
162.569
  0
LINE
  8
0
 10
159.22
 20
162.569
 11
158.951
 21
162.732
  0
LINE
  8
0
 10
158.951
 20
162.732
 11
158.886
 21
162.772
  0
LINE
  8
0
 10
158.886
 20
162.772
 11
158.604
 21
162.907
  0
LINE
  8
0
 10
158.604
 20
162.907
 11
158.535
 21
162.94
  0
LINE
  8
0
 10
158.535
 20
162.94
 11
158.457
 21
162.969
  0
LINE
  8
0
 10
158.457
 20
162.969
 11
158.168
 21
163.075
  0
LINE
  8
0
 10
158.168
 20
163.075
 11
158.095
 21
163.094
  0
LINE
  8
0
 10
158.095
 20
163.094
 11
157.812
 21
163.168
  0
LINE
  8
0
 10
157.812
 20
163.168
 11
157.141
 21
163.311
  0
LINE
  8
0
 10
157.141
 20
163.311
 11
157.099
 21
163.115
  0
LINE
  8
0
 10
157.099
 20
163.115
 11
146.34
 21
165.405
  0
LINE
  8
0
 10
146.34
 20
165.405
 11
146.382
 21
165.601
  0
LINE
  8
0
 10
146.382
 20
165.601
 11
145.711
 21
165.744
  0
LINE
  8
0
 10
145.711
 20
165.744
 11
144.711
 21
165.744
  0
LINE
  8
0
 10
144.711
 20
165.744
 11
144.711
 21
164.744
  0
LINE
  8
0
 10
144.711
 20
164.744
 11
146.711
 21
164.744
  0
LINE
  8
0
 10
146.711
 20
164.744
 11
146.837
 21
164.733
  0
LINE
  8
0
 10
146.837
 20
164.733
 11
146.906
 21
164.727
  0
LINE
  8
0
 10
146.906
 20
164.727
 11
146.928
 21
164.725
  0
LINE
  8
0
 10
146.928
 20
164.725
 11
147.139
 21
164.668
  0
LINE
  8
0
 10
147.139
 20
164.668
 11
147.336
 21
164.576
  0
LINE
  8
0
 10
147.336
 20
164.576
 11
147.514
 21
164.451
  0
LINE
  8
0
 10
147.514
 20
164.451
 11
147.669
 21
164.297
  0
LINE
  8
0
 10
147.669
 20
164.297
 11
147.794
 21
164.119
  0
LINE
  8
0
 10
147.794
 20
164.119
 11
147.886
 21
163.921
  0
LINE
  8
0
 10
147.886
 20
163.921
 11
147.942
 21
163.711
  0
LINE
  8
0
 10
147.942
 20
163.711
 11
147.961
 21
163.494
  0
LINE
  8
0
 10
147.961
 20
163.494
 11
147.942
 21
163.277
  0
LINE
  8
0
 10
147.942
 20
163.277
 11
147.886
 21
163.066
  0
LINE
  8
0
 10
147.886
 20
163.066
 11
147.794
 21
162.869
  0
LINE
  8
0
 10
147.794
 20
162.869
 11
147.669
 21
162.69
  0
LINE
  8
0
 10
147.669
 20
162.69
 11
147.595
 21
162.61
  0
LINE
  8
0
 10
147.595
 20
162.61
 11
145.479
 21
160.494
  0
LINE
  8
0
 10
145.479
 20
160.494
 11
160.782
 21
160.494
  0
LINE
  8
0
 10
160.782
 20
160.494
 11
160.704
 21
160.708
  0
LINE
  8
0
 10
155.779
 20
97.4938
 11
155.946
 21
97.5025
  0
LINE
  8
0
 10
155.946
 20
97.5025
 11
155.998
 21
97.506
  0
LINE
  8
0
 10
155.998
 20
97.506
 11
155.999
 21
97.5061
  0
LINE
  8
0
 10
155.999
 20
97.5061
 11
156.214
 21
97.5439
  0
LINE
  8
0
 10
156.214
 20
97.5439
 11
156.218
 21
97.5447
  0
LINE
  8
0
 10
156.218
 20
97.5447
 11
156.269
 21
97.5549
  0
LINE
  8
0
 10
156.269
 20
97.5549
 11
156.27
 21
97.5551
  0
LINE
  8
0
 10
156.27
 20
97.5551
 11
156.477
 21
97.6224
  0
LINE
  8
0
 10
156.477
 20
97.6224
 11
156.531
 21
97.6407
  0
LINE
  8
0
 10
156.531
 20
97.6407
 11
156.727
 21
97.7363
  0
LINE
  8
0
 10
156.727
 20
97.7363
 11
156.779
 21
97.7617
  0
LINE
  8
0
 10
156.779
 20
97.7617
 11
156.827
 21
97.7937
  0
LINE
  8
0
 10
156.827
 20
97.7937
 11
157.007
 21
97.9154
  0
LINE
  8
0
 10
157.007
 20
97.9154
 11
157.05
 21
97.9534
  0
LINE
  8
0
 10
157.05
 20
97.9534
 11
157.212
 21
98.099
  0
LINE
  8
0
 10
157.212
 20
98.099
 11
157.213
 21
98.0995
  0
LINE
  8
0
 10
157.213
 20
98.0995
 11
157.247
 21
98.1388
  0
LINE
  8
0
 10
157.247
 20
98.1388
 11
157.25
 21
98.1423
  0
LINE
  8
0
 10
157.25
 20
98.1423
 11
157.39
 21
98.309
  0
LINE
  8
0
 10
157.39
 20
98.309
 11
157.391
 21
98.3098
  0
LINE
  8
0
 10
157.391
 20
98.3098
 11
157.42
 21
98.3533
  0
LINE
  8
0
 10
157.42
 20
98.3533
 11
157.422
 21
98.3568
  0
LINE
  8
0
 10
157.422
 20
98.3568
 11
157.537
 21
98.5414
  0
LINE
  8
0
 10
157.537
 20
98.5414
 11
157.538
 21
98.5426
  0
LINE
  8
0
 10
157.538
 20
98.5426
 11
157.561
 21
98.5896
  0
LINE
  8
0
 10
157.561
 20
98.5896
 11
157.563
 21
98.593
  0
LINE
  8
0
 10
157.563
 20
98.593
 11
157.651
 21
98.7918
  0
LINE
  8
0
 10
157.651
 20
98.7918
 11
157.652
 21
98.7935
  0
LINE
  8
0
 10
157.652
 20
98.7935
 11
157.669
 21
98.843
  0
LINE
  8
0
 10
157.669
 20
98.843
 11
157.67
 21
98.8463
  0
LINE
  8
0
 10
157.67
 20
98.8463
 11
157.73
 21
99.0556
  0
LINE
  8
0
 10
157.73
 20
99.0556
 11
157.73
 21
99.0576
  0
LINE
  8
0
 10
157.73
 20
99.0576
 11
157.74
 21
99.1089
  0
LINE
  8
0
 10
157.74
 20
99.1089
 11
157.741
 21
99.112
  0
LINE
  8
0
 10
157.741
 20
99.112
 11
157.771
 21
99.3275
  0
LINE
  8
0
 10
157.771
 20
99.3275
 11
157.771
 21
99.33
  0
LINE
  8
0
 10
157.771
 20
99.33
 11
157.775
 21
99.3822
  0
LINE
  8
0
 10
157.775
 20
99.3822
 11
157.779
 21
99.4938
  0
LINE
  8
0
 10
157.779
 20
99.4938
 11
157.779
 21
102.882
  0
LINE
  8
0
 10
157.779
 20
102.882
 11
154.779
 21
103.382
  0
LINE
  8
0
 10
154.779
 20
103.382
 11
154.779
 21
106.663
  0
LINE
  8
0
 10
154.779
 20
106.663
 11
159.308
 21
107.418
  0
LINE
  8
0
 10
159.308
 20
107.418
 11
159.432
 21
107.444
  0
LINE
  8
0
 10
159.432
 20
107.444
 11
159.481
 21
107.455
  0
LINE
  8
0
 10
159.481
 20
107.455
 11
159.483
 21
107.456
  0
LINE
  8
0
 10
159.483
 20
107.456
 11
159.69
 21
107.523
  0
LINE
  8
0
 10
159.69
 20
107.523
 11
159.694
 21
107.524
  0
LINE
  8
0
 10
159.694
 20
107.524
 11
159.741
 21
107.542
  0
LINE
  8
0
 10
159.741
 20
107.542
 11
159.743
 21
107.543
  0
LINE
  8
0
 10
159.743
 20
107.543
 11
159.938
 21
107.638
  0
LINE
  8
0
 10
159.938
 20
107.638
 11
159.942
 21
107.64
  0
LINE
  8
0
 10
159.942
 20
107.64
 11
159.987
 21
107.664
  0
LINE
  8
0
 10
159.987
 20
107.664
 11
159.988
 21
107.664
  0
LINE
  8
0
 10
159.988
 20
107.664
 11
160.169
 21
107.786
  0
LINE
  8
0
 10
160.169
 20
107.786
 11
160.172
 21
107.789
  0
LINE
  8
0
 10
160.172
 20
107.789
 11
160.214
 21
107.818
  0
LINE
  8
0
 10
160.214
 20
107.818
 11
160.215
 21
107.818
  0
LINE
  8
0
 10
160.215
 20
107.818
 11
160.378
 21
107.965
  0
LINE
  8
0
 10
160.378
 20
107.965
 11
160.419
 21
108.003
  0
LINE
  8
0
 10
160.419
 20
108.003
 11
160.455
 21
108.046
  0
LINE
  8
0
 10
160.455
 20
108.046
 11
160.594
 21
108.211
  0
LINE
  8
0
 10
160.594
 20
108.211
 11
160.625
 21
108.259
  0
LINE
  8
0
 10
160.625
 20
108.259
 11
160.74
 21
108.443
  0
LINE
  8
0
 10
160.74
 20
108.443
 11
160.74
 21
108.444
  0
LINE
  8
0
 10
160.74
 20
108.444
 11
160.762
 21
108.49
  0
LINE
  8
0
 10
160.762
 20
108.49
 11
160.764
 21
108.494
  0
LINE
  8
0
 10
160.764
 20
108.494
 11
160.853
 21
108.693
  0
LINE
  8
0
 10
160.853
 20
108.693
 11
160.853
 21
108.694
  0
LINE
  8
0
 10
160.853
 20
108.694
 11
160.869
 21
108.742
  0
LINE
  8
0
 10
160.869
 20
108.742
 11
160.87
 21
108.746
  0
LINE
  8
0
 10
160.87
 20
108.746
 11
160.93
 21
108.955
  0
LINE
  8
0
 10
160.93
 20
108.955
 11
160.931
 21
108.957
  0
LINE
  8
0
 10
160.931
 20
108.957
 11
160.941
 21
109.007
  0
LINE
  8
0
 10
160.941
 20
109.007
 11
160.941
 21
109.01
  0
LINE
  8
0
 10
160.941
 20
109.01
 11
160.971
 21
109.226
  0
LINE
  8
0
 10
160.971
 20
109.226
 11
160.972
 21
109.228
  0
LINE
  8
0
 10
160.972
 20
109.228
 11
160.975
 21
109.279
  0
LINE
  8
0
 10
160.975
 20
109.279
 11
160.979
 21
109.391
  0
LINE
  8
0
 10
160.979
 20
109.391
 11
160.979
 21
158.994
  0
LINE
  8
0
 10
160.979
 20
158.994
 11
142.91
 21
158.994
  0
LINE
  8
0
 10
142.91
 20
158.994
 11
142.816
 21
158.986
  0
LINE
  8
0
 10
142.816
 20
158.986
 11
142.763
 21
158.981
  0
LINE
  8
0
 10
142.763
 20
158.981
 11
142.736
 21
158.979
  0
LINE
  8
0
 10
142.736
 20
158.979
 11
142.568
 21
158.933
  0
LINE
  8
0
 10
142.568
 20
158.933
 11
142.41
 21
158.86
  0
LINE
  8
0
 10
142.41
 20
158.86
 11
142.267
 21
158.76
  0
LINE
  8
0
 10
142.267
 20
158.76
 11
142.144
 21
158.637
  0
LINE
  8
0
 10
142.144
 20
158.637
 11
142.044
 21
158.494
  0
LINE
  8
0
 10
142.044
 20
158.494
 11
141.97
 21
158.336
  0
LINE
  8
0
 10
141.97
 20
158.336
 11
141.925
 21
158.167
  0
LINE
  8
0
 10
141.925
 20
158.167
 11
141.91
 21
157.994
  0
LINE
  8
0
 10
141.91
 20
157.994
 11
141.925
 21
157.82
  0
LINE
  8
0
 10
141.925
 20
157.82
 11
141.97
 21
157.652
  0
LINE
  8
0
 10
141.97
 20
157.652
 11
142.044
 21
157.494
  0
LINE
  8
0
 10
142.044
 20
157.494
 11
142.144
 21
157.351
  0
LINE
  8
0
 10
142.144
 20
157.351
 11
142.267
 21
157.228
  0
LINE
  8
0
 10
142.267
 20
157.228
 11
142.41
 21
157.128
  0
LINE
  8
0
 10
142.41
 20
157.128
 11
142.452
 21
157.105
  0
LINE
  8
0
 10
142.452
 20
157.105
 11
143.408
 21
156.59
  0
LINE
  8
0
 10
143.408
 20
156.59
 11
144.346
 21
156.041
  0
LINE
  8
0
 10
144.346
 20
156.041
 11
145.264
 21
155.46
  0
LINE
  8
0
 10
145.264
 20
155.46
 11
146.16
 21
154.846
  0
LINE
  8
0
 10
146.16
 20
154.846
 11
147.034
 21
154.2
  0
LINE
  8
0
 10
147.034
 20
154.2
 11
147.885
 21
153.524
  0
LINE
  8
0
 10
147.885
 20
153.524
 11
148.711
 21
152.817
  0
LINE
  8
0
 10
148.711
 20
152.817
 11
149.511
 21
152.082
  0
LINE
  8
0
 10
149.511
 20
152.082
 11
150.284
 21
151.319
  0
LINE
  8
0
 10
150.284
 20
151.319
 11
151.03
 21
150.529
  0
LINE
  8
0
 10
151.03
 20
150.529
 11
151.747
 21
149.713
  0
LINE
  8
0
 10
151.747
 20
149.713
 11
152.435
 21
148.871
  0
LINE
  8
0
 10
152.435
 20
148.871
 11
153.092
 21
148.006
  0
LINE
  8
0
 10
153.092
 20
148.006
 11
153.718
 21
147.118
  0
LINE
  8
0
 10
153.718
 20
147.118
 11
154.312
 21
146.208
  0
LINE
  8
0
 10
154.312
 20
146.208
 11
154.873
 21
145.277
  0
LINE
  8
0
 10
154.873
 20
145.277
 11
155.401
 21
144.328
  0
LINE
  8
0
 10
155.401
 20
144.328
 11
155.894
 21
143.359
  0
LINE
  8
0
 10
155.894
 20
143.359
 11
156.353
 21
142.374
  0
LINE
  8
0
 10
156.353
 20
142.374
 11
156.776
 21
141.374
  0
LINE
  8
0
 10
156.776
 20
141.374
 11
157.164
 21
140.359
  0
LINE
  8
0
 10
157.164
 20
140.359
 11
157.515
 21
139.33
  0
LINE
  8
0
 10
157.515
 20
139.33
 11
157.829
 21
138.29
  0
LINE
  8
0
 10
157.829
 20
138.29
 11
158.106
 21
137.239
  0
LINE
  8
0
 10
158.106
 20
137.239
 11
158.345
 21
136.179
  0
LINE
  8
0
 10
158.345
 20
136.179
 11
158.546
 21
135.112
  0
LINE
  8
0
 10
158.546
 20
135.112
 11
158.71
 21
134.037
  0
LINE
  8
0
 10
158.71
 20
134.037
 11
158.834
 21
132.958
  0
LINE
  8
0
 10
158.834
 20
132.958
 11
158.921
 21
131.875
  0
LINE
  8
0
 10
158.921
 20
131.875
 11
158.968
 21
130.789
  0
LINE
  8
0
 10
158.968
 20
130.789
 11
158.977
 21
129.703
  0
LINE
  8
0
 10
158.977
 20
129.703
 11
158.948
 21
128.617
  0
LINE
  8
0
 10
158.948
 20
128.617
 11
158.879
 21
127.532
  0
LINE
  8
0
 10
158.879
 20
127.532
 11
158.772
 21
126.451
  0
LINE
  8
0
 10
158.772
 20
126.451
 11
158.627
 21
125.374
  0
LINE
  8
0
 10
158.627
 20
125.374
 11
158.443
 21
124.303
  0
LINE
  8
0
 10
158.443
 20
124.303
 11
158.221
 21
123.239
  0
LINE
  8
0
 10
158.221
 20
123.239
 11
157.962
 21
122.184
  0
LINE
  8
0
 10
157.962
 20
122.184
 11
157.665
 21
121.139
  0
LINE
  8
0
 10
157.665
 20
121.139
 11
157.331
 21
120.105
  0
LINE
  8
0
 10
157.331
 20
120.105
 11
156.961
 21
119.084
  0
LINE
  8
0
 10
156.961
 20
119.084
 11
156.554
 21
118.076
  0
LINE
  8
0
 10
156.554
 20
118.076
 11
156.112
 21
117.083
  0
LINE
  8
0
 10
156.112
 20
117.083
 11
155.634
 21
116.107
  0
LINE
  8
0
 10
155.634
 20
116.107
 11
155.122
 21
115.149
  0
LINE
  8
0
 10
155.122
 20
115.149
 11
154.577
 21
114.209
  0
LINE
  8
0
 10
154.577
 20
114.209
 11
153.998
 21
113.29
  0
LINE
  8
0
 10
153.998
 20
113.29
 11
153.387
 21
112.391
  0
LINE
  8
0
 10
153.387
 20
112.391
 11
152.744
 21
111.515
  0
LINE
  8
0
 10
152.744
 20
111.515
 11
152.07
 21
110.663
  0
LINE
  8
0
 10
152.07
 20
110.663
 11
151.367
 21
109.835
  0
LINE
  8
0
 10
151.367
 20
109.835
 11
150.634
 21
109.032
  0
LINE
  8
0
 10
150.634
 20
109.032
 11
149.873
 21
108.256
  0
LINE
  8
0
 10
149.873
 20
108.256
 11
149.085
 21
107.508
  0
LINE
  8
0
 10
149.085
 20
107.508
 11
148.271
 21
106.788
  0
LINE
  8
0
 10
148.271
 20
106.788
 11
147.432
 21
106.098
  0
LINE
  8
0
 10
147.432
 20
106.098
 11
146.569
 21
105.438
  0
LINE
  8
0
 10
146.569
 20
105.438
 11
145.683
 21
104.809
  0
LINE
  8
0
 10
145.683
 20
104.809
 11
144.775
 21
104.212
  0
LINE
  8
0
 10
144.775
 20
104.212
 11
143.846
 21
103.648
  0
LINE
  8
0
 10
143.846
 20
103.648
 11
142.898
 21
103.118
  0
LINE
  8
0
 10
142.898
 20
103.118
 11
141.932
 21
102.621
  0
LINE
  8
0
 10
141.932
 20
102.621
 11
140.948
 21
102.159
  0
LINE
  8
0
 10
140.948
 20
102.159
 11
139.949
 21
101.733
  0
LINE
  8
0
 10
139.949
 20
101.733
 11
138.935
 21
101.342
  0
LINE
  8
0
 10
138.935
 20
101.342
 11
137.907
 21
100.988
  0
LINE
  8
0
 10
137.907
 20
100.988
 11
136.868
 21
100.67
  0
LINE
  8
0
 10
136.868
 20
100.67
 11
135.818
 21
100.39
  0
LINE
  8
0
 10
135.818
 20
100.39
 11
134.759
 21
100.147
  0
LINE
  8
0
 10
134.759
 20
100.147
 11
133.692
 21
99.9427
  0
LINE
  8
0
 10
133.692
 20
99.9427
 11
132.618
 21
99.776
  0
LINE
  8
0
 10
132.618
 20
99.776
 11
131.539
 21
99.6477
  0
LINE
  8
0
 10
131.539
 20
99.6477
 11
130.457
 21
99.558
  0
LINE
  8
0
 10
130.457
 20
99.558
 11
129.371
 21
99.5068
  0
LINE
  8
0
 10
129.371
 20
99.5068
 11
128.285
 21
99.4944
  0
LINE
  8
0
 10
128.285
 20
99.4944
 11
127.198
 21
99.5207
  0
LINE
  8
0
 10
127.198
 20
99.5207
 11
126.114
 21
99.5856
  0
LINE
  8
0
 10
126.114
 20
99.5856
 11
125.032
 21
99.6891
  0
LINE
  8
0
 10
125.032
 20
99.6891
 11
123.955
 21
99.8311
  0
LINE
  8
0
 10
123.955
 20
99.8311
 11
122.883
 21
100.011
  0
LINE
  8
0
 10
122.883
 20
100.011
 11
121.819
 21
100.23
  0
LINE
  8
0
 10
121.819
 20
100.23
 11
120.763
 21
100.486
  0
LINE
  8
0
 10
120.763
 20
100.486
 11
119.717
 21
100.779
  0
LINE
  8
0
 10
119.717
 20
100.779
 11
118.682
 21
101.11
  0
LINE
  8
0
 10
118.682
 20
101.11
 11
117.659
 21
101.477
  0
LINE
  8
0
 10
117.659
 20
101.477
 11
116.65
 21
101.881
  0
LINE
  8
0
 10
116.65
 20
101.881
 11
115.656
 21
102.32
  0
LINE
  8
0
 10
115.656
 20
102.32
 11
114.679
 21
102.794
  0
LINE
  8
0
 10
114.679
 20
102.794
 11
113.719
 21
103.303
  0
LINE
  8
0
 10
113.719
 20
103.303
 11
112.777
 21
103.846
  0
LINE
  8
0
 10
112.777
 20
103.846
 11
111.856
 21
104.422
  0
LINE
  8
0
 10
111.856
 20
104.422
 11
110.956
 21
105.03
  0
LINE
  8
0
 10
110.956
 20
105.03
 11
110.077
 21
105.67
  0
LINE
  8
0
 10
110.077
 20
105.67
 11
109.223
 21
106.341
  0
LINE
  8
0
 10
109.223
 20
106.341
 11
108.392
 21
107.042
  0
LINE
  8
0
 10
108.392
 20
107.042
 11
107.588
 21
107.772
  0
LINE
  8
0
 10
107.588
 20
107.772
 11
106.809
 21
108.53
  0
LINE
  8
0
 10
106.809
 20
108.53
 11
106.059
 21
109.316
  0
LINE
  8
0
 10
106.059
 20
109.316
 11
105.336
 21
110.127
  0
LINE
  8
0
 10
105.336
 20
110.127
 11
104.643
 21
110.964
  0
LINE
  8
0
 10
104.643
 20
110.964
 11
103.981
 21
111.825
  0
LINE
  8
0
 10
103.981
 20
111.825
 11
103.349
 21
112.71
  0
LINE
  8
0
 10
103.349
 20
112.71
 11
102.749
 21
113.616
  0
LINE
  8
0
 10
102.749
 20
113.616
 11
102.182
 21
114.543
  0
LINE
  8
0
 10
102.182
 20
114.543
 11
101.648
 21
115.489
  0
LINE
  8
0
 10
101.648
 20
115.489
 11
101.149
 21
116.454
  0
LINE
  8
0
 10
101.149
 20
116.454
 11
100.684
 21
117.436
  0
LINE
  8
0
 10
100.684
 20
117.436
 11
100.254
 21
118.434
  0
LINE
  8
0
 10
100.254
 20
118.434
 11
99.8604
 21
119.447
  0
LINE
  8
0
 10
99.8604
 20
119.447
 11
99.5029
 21
120.473
  0
LINE
  8
0
 10
99.5029
 20
120.473
 11
99.1821
 21
121.511
  0
LINE
  8
0
 10
99.1821
 20
121.511
 11
98.8986
 21
122.56
  0
LINE
  8
0
 10
98.8986
 20
122.56
 11
98.6525
 21
123.618
  0
LINE
  8
0
 10
98.6525
 20
123.618
 11
98.4444
 21
124.685
  0
LINE
  8
0
 10
98.4444
 20
124.685
 11
98.2743
 21
125.758
  0
LINE
  8
0
 10
98.2743
 20
125.758
 11
98.1426
 21
126.837
  0
LINE
  8
0
 10
98.1426
 20
126.837
 11
98.0494
 21
127.919
  0
LINE
  8
0
 10
98.0494
 20
127.919
 11
97.9948
 21
129.004
  0
LINE
  8
0
 10
97.9948
 20
129.004
 11
97.9789
 21
130.091
  0
LINE
  8
0
 10
97.9789
 20
130.091
 11
98.0017
 21
131.177
  0
LINE
  8
0
 10
98.0017
 20
131.177
 11
98.0632
 21
132.262
  0
LINE
  8
0
 10
98.0632
 20
132.262
 11
98.1633
 21
133.344
  0
LINE
  8
0
 10
98.1633
 20
133.344
 11
98.3019
 21
134.422
  0
LINE
  8
0
 10
98.3019
 20
134.422
 11
98.4787
 21
135.494
  0
LINE
  8
0
 10
98.4787
 20
135.494
 11
98.6937
 21
136.559
  0
LINE
  8
0
 10
98.6937
 20
136.559
 11
98.9464
 21
137.616
  0
LINE
  8
0
 10
98.9464
 20
137.616
 11
99.2367
 21
138.663
  0
LINE
  8
0
 10
99.2367
 20
138.663
 11
99.564
 21
139.699
  0
LINE
  8
0
 10
99.564
 20
139.699
 11
99.9281
 21
140.723
  0
LINE
  8
0
 10
99.9281
 20
140.723
 11
100.328
 21
141.733
  0
LINE
  8
0
 10
100.328
 20
141.733
 11
100.764
 21
142.728
  0
LINE
  8
0
 10
100.764
 20
142.728
 11
101.236
 21
143.707
  0
LINE
  8
0
 10
101.236
 20
143.707
 11
101.741
 21
144.669
  0
LINE
  8
0
 10
101.741
 20
144.669
 11
102.281
 21
145.612
  0
LINE
  8
0
 10
102.281
 20
145.612
 11
102.854
 21
146.535
  0
LINE
  8
0
 10
102.854
 20
146.535
 11
103.459
 21
147.437
  0
LINE
  8
0
 10
103.459
 20
147.437
 11
104.097
 21
148.318
  0
LINE
  8
0
 10
104.097
 20
148.318
 11
104.765
 21
149.174
  0
LINE
  8
0
 10
104.765
 20
149.174
 11
105.463
 21
150.007
  0
LINE
  8
0
 10
105.463
 20
150.007
 11
106.191
 21
150.814
  0
LINE
  8
0
 10
106.191
 20
150.814
 11
106.946
 21
151.595
  0
LINE
  8
0
 10
106.946
 20
151.595
 11
107.729
 21
152.348
  0
LINE
  8
0
 10
107.729
 20
152.348
 11
108.539
 21
153.073
  0
LINE
  8
0
 10
108.539
 20
153.073
 11
109.374
 21
153.769
  0
LINE
  8
0
 10
109.374
 20
153.769
 11
110.233
 21
154.434
  0
LINE
  8
0
 10
110.233
 20
154.434
 11
111.115
 21
155.068
  0
LINE
  8
0
 10
111.115
 20
155.068
 11
112.019
 21
155.671
  0
LINE
  8
0
 10
112.019
 20
155.671
 11
112.944
 21
156.241
  0
LINE
  8
0
 10
112.944
 20
156.241
 11
113.889
 21
156.778
  0
LINE
  8
0
 10
113.889
 20
156.778
 11
114.852
 21
157.28
  0
LINE
  8
0
 10
114.852
 20
157.28
 11
115.833
 21
157.749
  0
LINE
  8
0
 10
115.833
 20
157.749
 11
116.829
 21
158.181
  0
LINE
  8
0
 10
116.829
 20
158.181
 11
117.841
 21
158.578
  0
LINE
  8
0
 10
117.841
 20
158.578
 11
118.866
 21
158.939
  0
LINE
  8
0
 10
118.866
 20
158.939
 11
119.903
 21
159.263
  0
LINE
  8
0
 10
119.903
 20
159.263
 11
120.951
 21
159.55
  0
LINE
  8
0
 10
120.951
 20
159.55
 11
122.008
 21
159.8
  0
LINE
  8
0
 10
122.008
 20
159.8
 11
123.074
 21
160.011
  0
LINE
  8
0
 10
123.074
 20
160.011
 11
124.147
 21
160.185
  0
LINE
  8
0
 10
124.147
 20
160.185
 11
125.225
 21
160.32
  0
LINE
  8
0
 10
125.225
 20
160.32
 11
126.307
 21
160.416
  0
LINE
  8
0
 10
126.307
 20
160.416
 11
127.392
 21
160.474
  0
LINE
  8
0
 10
127.392
 20
160.474
 11
128.479
 21
160.494
  0
LINE
  8
0
 10
128.479
 20
160.494
 11
142.979
 21
160.494
  0
LINE
  8
0
 10
142.979
 20
160.494
 11
144.467
 21
161.982
  0
LINE
  8
0
 10
144.467
 20
161.982
 11
144.492
 21
162.011
  0
LINE
  8
0
 10
144.492
 20
162.011
 11
144.521
 21
162.055
  0
LINE
  8
0
 10
144.521
 20
162.055
 11
144.541
 21
162.104
  0
LINE
  8
0
 10
144.541
 20
162.104
 11
144.552
 21
162.155
  0
LINE
  8
0
 10
144.552
 20
162.155
 11
144.554
 21
162.207
  0
LINE
  8
0
 10
144.554
 20
162.207
 11
144.547
 21
162.259
  0
LINE
  8
0
 10
144.547
 20
162.259
 11
144.532
 21
162.309
  0
LINE
  8
0
 10
144.532
 20
162.309
 11
144.508
 21
162.355
  0
LINE
  8
0
 10
144.508
 20
162.355
 11
144.476
 21
162.396
  0
LINE
  8
0
 10
144.476
 20
162.396
 11
144.437
 21
162.432
  0
LINE
  8
0
 10
144.437
 20
162.432
 11
144.393
 21
162.46
  0
LINE
  8
0
 10
144.393
 20
162.46
 11
144.345
 21
162.48
  0
LINE
  8
0
 10
144.345
 20
162.48
 11
144.294
 21
162.491
  0
LINE
  8
0
 10
144.294
 20
162.491
 11
144.254
 21
162.494
  0
LINE
  8
0
 10
144.254
 20
162.494
 11
140.345
 21
162.494
  0
LINE
  8
0
 10
140.345
 20
162.494
 11
140.345
 21
162.294
  0
LINE
  8
0
 10
140.345
 20
162.294
 11
100.345
 21
162.294
  0
LINE
  8
0
 10
100.345
 20
162.294
 11
100.345
 21
162.494
  0
LINE
  8
0
 10
100.345
 20
162.494
 11
95.9787
 21
162.494
  0
LINE
  8
0
 10
95.9787
 20
162.494
 11
95.5867
 21
162.475
  0
LINE
  8
0
 10
95.5867
 20
162.475
 11
95.1984
 21
162.417
  0
LINE
  8
0
 10
95.1984
 20
162.417
 11
94.8176
 21
162.322
  0
LINE
  8
0
 10
94.8176
 20
162.322
 11
94.448
 21
162.189
  0
LINE
  8
0
 10
94.448
 20
162.189
 11
94.0932
 21
162.021
  0
LINE
  8
0
 10
94.0932
 20
162.021
 11
93.7565
 21
161.82
  0
LINE
  8
0
 10
93.7565
 20
161.82
 11
93.4412
 21
161.586
  0
LINE
  8
0
 10
93.4412
 20
161.586
 11
93.1503
 21
161.322
  0
LINE
  8
0
 10
93.1503
 20
161.322
 11
92.8867
 21
161.031
  0
LINE
  8
0
 10
92.8867
 20
161.031
 11
92.6529
 21
160.716
  0
LINE
  8
0
 10
92.6529
 20
160.716
 11
92.4511
 21
160.379
  0
LINE
  8
0
 10
92.4511
 20
160.379
 11
92.2832
 21
160.025
  0
LINE
  8
0
 10
92.2832
 20
160.025
 11
92.151
 21
159.655
  0
LINE
  8
0
 10
92.151
 20
159.655
 11
92.0556
 21
159.274
  0
LINE
  8
0
 10
92.0556
 20
159.274
 11
91.998
 21
158.886
  0
LINE
  8
0
 10
91.998
 20
158.886
 11
91.9787
 21
158.494
  0
LINE
  8
0
 10
91.9787
 20
158.494
 11
91.9787
 21
98.4938
  0
LINE
  8
0
 10
91.9787
 20
98.4938
 11
91.9878
 21
98.3893
  0
LINE
  8
0
 10
91.9878
 20
98.3893
 11
91.9926
 21
98.3349
  0
LINE
  8
0
 10
91.9926
 20
98.3349
 11
91.9939
 21
98.3201
  0
LINE
  8
0
 10
91.9939
 20
98.3201
 11
92.0391
 21
98.1518
  0
LINE
  8
0
 10
92.0391
 20
98.1518
 11
92.1127
 21
97.9938
  0
LINE
  8
0
 10
92.1127
 20
97.9938
 11
92.2127
 21
97.851
  0
LINE
  8
0
 10
92.2127
 20
97.851
 11
92.336
 21
97.7277
  0
LINE
  8
0
 10
92.336
 20
97.7277
 11
92.4787
 21
97.6277
  0
LINE
  8
0
 10
92.4787
 20
97.6277
 11
92.6367
 21
97.5541
  0
LINE
  8
0
 10
92.6367
 20
97.5541
 11
92.8051
 21
97.509
  0
LINE
  8
0
 10
92.8051
 20
97.509
 11
92.9787
 21
97.4938
  0
LINE
  8
0
 10
92.9787
 20
97.4938
 11
93.1524
 21
97.509
  0
LINE
  8
0
 10
93.1524
 20
97.509
 11
93.3208
 21
97.5541
  0
LINE
  8
0
 10
93.3208
 20
97.5541
 11
93.4787
 21
97.6277
  0
LINE
  8
0
 10
93.4787
 20
97.6277
 11
93.6215
 21
97.7277
  0
LINE
  8
0
 10
93.6215
 20
97.7277
 11
93.7448
 21
97.851
  0
LINE
  8
0
 10
93.7448
 20
97.851
 11
93.8448
 21
97.9938
  0
LINE
  8
0
 10
93.8448
 20
97.9938
 11
93.9184
 21
98.1518
  0
LINE
  8
0
 10
93.9184
 20
98.1518
 11
93.9557
 21
98.2804
  0
LINE
  8
0
 10
93.9557
 20
98.2804
 11
94.2018
 21
99.4071
  0
LINE
  8
0
 10
94.2018
 20
99.4071
 11
94.2391
 21
99.5358
  0
LINE
  8
0
 10
94.2391
 20
99.5358
 11
94.3127
 21
99.6938
  0
LINE
  8
0
 10
94.3127
 20
99.6938
 11
94.4127
 21
99.8366
  0
LINE
  8
0
 10
94.4127
 20
99.8366
 11
94.536
 21
99.9598
  0
LINE
  8
0
 10
94.536
 20
99.9598
 11
94.6788
 21
100.06
  0
LINE
  8
0
 10
94.6788
 20
100.06
 11
94.8367
 21
100.133
  0
LINE
  8
0
 10
94.8367
 20
100.133
 11
95.0051
 21
100.179
  0
LINE
  8
0
 10
95.0051
 20
100.179
 11
95.0759
 21
100.188
  0
LINE
  8
0
 10
95.0759
 20
100.188
 11
96.541
 21
100.34
  0
LINE
  8
0
 10
96.541
 20
100.34
 11
96.6117
 21
100.35
  0
LINE
  8
0
 10
96.6117
 20
100.35
 11
96.7801
 21
100.395
  0
LINE
  8
0
 10
96.7801
 20
100.395
 11
96.9381
 21
100.469
  0
LINE
  8
0
 10
96.9381
 20
100.469
 11
97.0809
 21
100.569
  0
LINE
  8
0
 10
97.0809
 20
100.569
 11
97.2041
 21
100.692
  0
LINE
  8
0
 10
97.2041
 20
100.692
 11
97.3041
 21
100.835
  0
LINE
  8
0
 10
97.3041
 20
100.835
 11
97.3666
 21
100.963
  0
LINE
  8
0
 10
97.3666
 20
100.963
 11
97.8257
 21
102.111
  0
LINE
  8
0
 10
97.8257
 20
102.111
 11
97.8285
 21
102.119
  0
LINE
  8
0
 10
97.8285
 20
102.119
 11
97.8398
 21
102.161
  0
LINE
  8
0
 10
97.8398
 20
102.161
 11
97.8436
 21
102.204
  0
LINE
  8
0
 10
97.8436
 20
102.204
 11
97.8398
 21
102.247
  0
LINE
  8
0
 10
97.8398
 20
102.247
 11
97.8285
 21
102.29
  0
LINE
  8
0
 10
97.8285
 20
102.29
 11
97.8101
 21
102.329
  0
LINE
  8
0
 10
97.8101
 20
102.329
 11
97.7851
 21
102.365
  0
LINE
  8
0
 10
97.7851
 20
102.365
 11
97.7543
 21
102.396
  0
LINE
  8
0
 10
97.7543
 20
102.396
 11
97.7186
 21
102.421
  0
LINE
  8
0
 10
97.7186
 20
102.421
 11
97.6791
 21
102.439
  0
LINE
  8
0
 10
97.6791
 20
102.439
 11
97.637
 21
102.45
  0
LINE
  8
0
 10
97.637
 20
102.45
 11
97.5936
 21
102.454
  0
LINE
  8
0
 10
97.5936
 20
102.454
 11
97.5687
 21
102.453
  0
LINE
  8
0
 10
97.5687
 20
102.453
 11
96.0887
 21
102.305
  0
LINE
  8
0
 10
96.0887
 20
102.305
 11
96.075
 21
102.304
  0
LINE
  8
0
 10
96.075
 20
102.304
 11
96.0577
 21
102.307
  0
LINE
  8
0
 10
96.0577
 20
102.307
 11
96.041
 21
102.312
  0
LINE
  8
0
 10
96.041
 20
102.312
 11
96.0255
 21
102.32
  0
LINE
  8
0
 10
96.0255
 20
102.32
 11
96.0116
 21
102.33
  0
LINE
  8
0
 10
96.0116
 20
102.33
 11
95.9998
 21
102.343
  0
LINE
  8
0
 10
95.9998
 20
102.343
 11
95.9903
 21
102.358
  0
LINE
  8
0
 10
95.9903
 20
102.358
 11
95.9836
 21
102.374
  0
LINE
  8
0
 10
95.9836
 20
102.374
 11
95.9797
 21
102.391
  0
LINE
  8
0
 10
95.9797
 20
102.391
 11
95.9787
 21
102.404
  0
LINE
  8
0
 10
95.9787
 20
102.404
 11
95.9787
 21
107.494
  0
LINE
  8
0
 10
95.9787
 20
107.494
 11
95.6765
 21
109.787
  0
LINE
  8
0
 10
95.6765
 20
109.787
 11
95.4096
 21
112.084
  0
LINE
  8
0
 10
95.4096
 20
112.084
 11
95.1781
 21
114.386
  0
LINE
  8
0
 10
95.1781
 20
114.386
 11
94.9822
 21
116.69
  0
LINE
  8
0
 10
94.9822
 20
116.69
 11
94.8218
 21
118.998
  0
LINE
  8
0
 10
94.8218
 20
118.998
 11
94.6971
 21
121.307
  0
LINE
  8
0
 10
94.6971
 20
121.307
 11
94.6079
 21
123.619
  0
LINE
  8
0
 10
94.6079
 20
123.619
 11
94.5544
 21
125.931
  0
LINE
  8
0
 10
94.5544
 20
125.931
 11
94.5366
 21
128.244
  0
LINE
  8
0
 10
94.5366
 20
128.244
 11
94.5544
 21
130.557
  0
LINE
  8
0
 10
94.5544
 20
130.557
 11
94.6079
 21
132.869
  0
LINE
  8
0
 10
94.6079
 20
132.869
 11
94.6971
 21
135.18
  0
LINE
  8
0
 10
94.6971
 20
135.18
 11
94.8218
 21
137.49
  0
LINE
  8
0
 10
94.8218
 20
137.49
 11
94.9822
 21
139.797
  0
LINE
  8
0
 10
94.9822
 20
139.797
 11
95.1781
 21
142.102
  0
LINE
  8
0
 10
95.1781
 20
142.102
 11
95.4096
 21
144.403
  0
LINE
  8
0
 10
95.4096
 20
144.403
 11
95.6765
 21
146.701
  0
LINE
  8
0
 10
95.6765
 20
146.701
 11
95.9787
 21
148.994
  0
LINE
  8
0
 10
95.9787
 20
148.994
 11
95.9787
 21
149.744
  0
LINE
  8
0
 10
95.9787
 20
149.744
 11
95.9797
 21
149.766
  0
LINE
  8
0
 10
95.9797
 20
149.766
 11
95.9873
 21
149.808
  0
LINE
  8
0
 10
95.9873
 20
149.808
 11
96.0022
 21
149.849
  0
LINE
  8
0
 10
96.0022
 20
149.849
 11
96.024
 21
149.887
  0
LINE
  8
0
 10
96.024
 20
149.887
 11
96.052
 21
149.921
  0
LINE
  8
0
 10
96.052
 20
149.921
 11
96.0854
 21
149.949
  0
LINE
  8
0
 10
96.0854
 20
149.949
 11
96.1231
 21
149.97
  0
LINE
  8
0
 10
96.1231
 20
149.97
 11
96.164
 21
149.985
  0
LINE
  8
0
 10
96.164
 20
149.985
 11
96.207
 21
149.993
  0
LINE
  8
0
 10
96.207
 20
149.993
 11
96.2505
 21
149.993
  0
LINE
  8
0
 10
96.2505
 20
149.993
 11
96.2935
 21
149.985
  0
LINE
  8
0
 10
96.2935
 20
149.985
 11
96.3344
 21
149.97
  0
LINE
  8
0
 10
96.3344
 20
149.97
 11
96.3721
 21
149.949
  0
LINE
  8
0
 10
96.3721
 20
149.949
 11
96.4055
 21
149.921
  0
LINE
  8
0
 10
96.4055
 20
149.921
 11
96.4335
 21
149.887
  0
LINE
  8
0
 10
96.4335
 20
149.887
 11
96.4553
 21
149.849
  0
LINE
  8
0
 10
96.4553
 20
149.849
 11
96.4702
 21
149.808
  0
LINE
  8
0
 10
96.4702
 20
149.808
 11
96.4778
 21
149.766
  0
LINE
  8
0
 10
96.4778
 20
149.766
 11
96.4787
 21
149.744
  0
LINE
  8
0
 10
96.4787
 20
149.744
 11
96.4787
 21
106.994
  0
LINE
  8
0
 10
96.4787
 20
106.994
 11
96.4807
 21
106.95
  0
LINE
  8
0
 10
96.4807
 20
106.95
 11
96.4958
 21
106.864
  0
LINE
  8
0
 10
96.4958
 20
106.864
 11
96.5256
 21
106.782
  0
LINE
  8
0
 10
96.5256
 20
106.782
 11
96.5692
 21
106.707
  0
LINE
  8
0
 10
96.5692
 20
106.707
 11
96.6252
 21
106.64
  0
LINE
  8
0
 10
96.6252
 20
106.64
 11
96.692
 21
106.584
  0
LINE
  8
0
 10
96.692
 20
106.584
 11
96.7674
 21
106.541
  0
LINE
  8
0
 10
96.7674
 20
106.541
 11
96.8493
 21
106.511
  0
LINE
  8
0
 10
96.8493
 20
106.511
 11
96.9352
 21
106.496
  0
LINE
  8
0
 10
96.9352
 20
106.496
 11
96.9787
 21
106.494
  0
LINE
  8
0
 10
96.9787
 20
106.494
 11
100.481
 21
106.494
  0
LINE
  8
0
 10
100.481
 20
106.494
 11
100.522
 21
106.492
  0
LINE
  8
0
 10
100.522
 20
106.492
 11
100.608
 21
106.477
  0
LINE
  8
0
 10
100.608
 20
106.477
 11
100.69
 21
106.448
  0
LINE
  8
0
 10
100.69
 20
106.448
 11
100.766
 21
106.405
  0
LINE
  8
0
 10
100.766
 20
106.405
 11
100.833
 21
106.349
  0
LINE
  8
0
 10
100.833
 20
106.349
 11
100.889
 21
106.283
  0
LINE
  8
0
 10
100.889
 20
106.283
 11
100.933
 21
106.207
  0
LINE
  8
0
 10
100.933
 20
106.207
 11
100.963
 21
106.125
  0
LINE
  8
0
 10
100.963
 20
106.125
 11
100.979
 21
106.04
  0
LINE
  8
0
 10
100.979
 20
106.04
 11
100.981
 21
105.999
  0
LINE
  8
0
 10
100.981
 20
105.999
 11
101.012
 21
104.637
  0
LINE
  8
0
 10
101.012
 20
104.637
 11
101.078
 21
103.278
  0
LINE
  8
0
 10
101.078
 20
103.278
 11
101.18
 21
101.92
  0
LINE
  8
0
 10
101.18
 20
101.92
 11
101.317
 21
100.565
  0
LINE
  8
0
 10
101.317
 20
100.565
 11
101.489
 21
99.2148
  0
LINE
  8
0
 10
101.489
 20
99.2148
 11
101.521
 21
99.0595
  0
LINE
  8
0
 10
101.521
 20
99.0595
 11
101.546
 21
98.9461
  0
LINE
  8
0
 10
101.546
 20
98.9461
 11
101.565
 21
98.8924
  0
LINE
  8
0
 10
101.565
 20
98.8924
 11
101.639
 21
98.6879
  0
LINE
  8
0
 10
101.639
 20
98.6879
 11
101.639
 21
98.6872
  0
LINE
  8
0
 10
101.639
 20
98.6872
 11
101.663
 21
98.6407
  0
LINE
  8
0
 10
101.663
 20
98.6407
 11
101.665
 21
98.6368
  0
LINE
  8
0
 10
101.665
 20
98.6368
 11
101.767
 21
98.4446
  0
LINE
  8
0
 10
101.767
 20
98.4446
 11
101.767
 21
98.4436
  0
LINE
  8
0
 10
101.767
 20
98.4436
 11
101.797
 21
98.4006
  0
LINE
  8
0
 10
101.797
 20
98.4006
 11
101.799
 21
98.3972
  0
LINE
  8
0
 10
101.799
 20
98.3972
 11
101.927
 21
98.2212
  0
LINE
  8
0
 10
101.927
 20
98.2212
 11
101.928
 21
98.22
  0
LINE
  8
0
 10
101.928
 20
98.22
 11
101.962
 21
98.1811
  0
LINE
  8
0
 10
101.962
 20
98.1811
 11
101.965
 21
98.1784
  0
LINE
  8
0
 10
101.965
 20
98.1784
 11
102.116
 21
98.0218
  0
LINE
  8
0
 10
102.116
 20
98.0218
 11
102.117
 21
98.0205
  0
LINE
  8
0
 10
102.117
 20
98.0205
 11
102.157
 21
97.9864
  0
LINE
  8
0
 10
102.157
 20
97.9864
 11
102.159
 21
97.9843
  0
LINE
  8
0
 10
102.159
 20
97.9843
 11
102.331
 21
97.8503
  0
LINE
  8
0
 10
102.331
 20
97.8503
 11
102.332
 21
97.849
  0
LINE
  8
0
 10
102.332
 20
97.849
 11
102.376
 21
97.8203
  0
LINE
  8
0
 10
102.376
 20
97.8203
 11
102.378
 21
97.8187
  0
LINE
  8
0
 10
102.378
 20
97.8187
 11
102.567
 21
97.7099
  0
LINE
  8
0
 10
102.567
 20
97.7099
 11
102.569
 21
97.7086
  0
LINE
  8
0
 10
102.569
 20
97.7086
 11
102.616
 21
97.6858
  0
LINE
  8
0
 10
102.616
 20
97.6858
 11
102.618
 21
97.6847
  0
LINE
  8
0
 10
102.618
 20
97.6847
 11
102.82
 21
97.6032
  0
LINE
  8
0
 10
102.82
 20
97.6032
 11
102.823
 21
97.6022
  0
LINE
  8
0
 10
102.823
 20
97.6022
 11
102.872
 21
97.5855
  0
LINE
  8
0
 10
102.872
 20
97.5855
 11
102.874
 21
97.5849
  0
LINE
  8
0
 10
102.874
 20
97.5849
 11
103.085
 21
97.5323
  0
LINE
  8
0
 10
103.085
 20
97.5323
 11
103.089
 21
97.5316
  0
LINE
  8
0
 10
103.089
 20
97.5316
 11
103.14
 21
97.5215
  0
LINE
  8
0
 10
103.14
 20
97.5215
 11
103.141
 21
97.5212
  0
LINE
  8
0
 10
103.141
 20
97.5212
 11
103.358
 21
97.4984
  0
LINE
  8
0
 10
103.358
 20
97.4984
 11
103.362
 21
97.4981
  0
LINE
  8
0
 10
103.362
 20
97.4981
 11
103.414
 21
97.4948
  0
LINE
  8
0
 10
103.414
 20
97.4948
 11
103.469
 21
97.4938
  0
LINE
  8
0
 10
103.469
 20
97.4938
 11
155.779
 21
97.4938
  0
LINE
  8
0
 10
98.9787
 20
149.744
 11
98.9745
 21
149.889
  0
LINE
  8
0
 10
98.9745
 20
149.889
 11
98.9723
 21
149.925
  0
LINE
  8
0
 10
98.9723
 20
149.925
 11
98.972
 21
149.928
  0
LINE
  8
0
 10
98.972
 20
149.928
 11
98.9386
 21
150.209
  0
LINE
  8
0
 10
98.9386
 20
150.209
 11
98.938
 21
150.212
  0
LINE
  8
0
 10
98.938
 20
150.212
 11
98.9316
 21
150.248
  0
LINE
  8
0
 10
98.9316
 20
150.248
 11
98.9308
 21
150.252
  0
LINE
  8
0
 10
98.9308
 20
150.252
 11
98.8645
 21
150.526
  0
LINE
  8
0
 10
98.8645
 20
150.526
 11
98.8636
 21
150.53
  0
LINE
  8
0
 10
98.8636
 20
150.53
 11
98.8529
 21
150.564
  0
LINE
  8
0
 10
98.8529
 20
150.564
 11
98.8517
 21
150.568
  0
LINE
  8
0
 10
98.8517
 20
150.568
 11
98.7534
 21
150.833
  0
LINE
  8
0
 10
98.7534
 20
150.833
 11
98.7521
 21
150.836
  0
LINE
  8
0
 10
98.7521
 20
150.836
 11
98.7374
 21
150.869
  0
LINE
  8
0
 10
98.7374
 20
150.869
 11
98.7358
 21
150.873
  0
LINE
  8
0
 10
98.7358
 20
150.873
 11
98.6068
 21
151.124
  0
LINE
  8
0
 10
98.6068
 20
151.124
 11
98.6051
 21
151.127
  0
LINE
  8
0
 10
98.6051
 20
151.127
 11
98.5866
 21
151.158
  0
LINE
  8
0
 10
98.5866
 20
151.158
 11
98.5846
 21
151.161
  0
LINE
  8
0
 10
98.5846
 20
151.161
 11
98.4268
 21
151.395
  0
LINE
  8
0
 10
98.4268
 20
151.395
 11
98.4248
 21
151.398
  0
LINE
  8
0
 10
98.4248
 20
151.398
 11
98.4027
 21
151.427
  0
LINE
  8
0
 10
98.4027
 20
151.427
 11
98.4003
 21
151.43
  0
LINE
  8
0
 10
98.4003
 20
151.43
 11
98.2159
 21
151.644
  0
LINE
  8
0
 10
98.2159
 20
151.644
 11
98.2136
 21
151.647
  0
LINE
  8
0
 10
98.2136
 20
151.647
 11
98.1882
 21
151.673
  0
LINE
  8
0
 10
98.1882
 20
151.673
 11
98.1855
 21
151.675
  0
LINE
  8
0
 10
98.1855
 20
151.675
 11
97.9771
 21
151.866
  0
LINE
  8
0
 10
97.9771
 20
151.866
 11
97.9745
 21
151.868
  0
LINE
  8
0
 10
97.9745
 20
151.868
 11
97.9462
 21
151.891
  0
LINE
  8
0
 10
97.9462
 20
151.891
 11
97.9432
 21
151.893
  0
LINE
  8
0
 10
97.9432
 20
151.893
 11
97.7138
 21
152.058
  0
LINE
  8
0
 10
97.7138
 20
152.058
 11
97.7109
 21
152.06
  0
LINE
  8
0
 10
97.7109
 20
152.06
 11
97.6801
 21
152.079
  0
LINE
  8
0
 10
97.6801
 20
152.079
 11
97.6768
 21
152.081
  0
LINE
  8
0
 10
97.6768
 20
152.081
 11
97.4295
 21
152.217
  0
LINE
  8
0
 10
97.4295
 20
152.217
 11
97.4265
 21
152.219
  0
LINE
  8
0
 10
97.4265
 20
152.219
 11
97.3936
 21
152.234
  0
LINE
  8
0
 10
97.3936
 20
152.234
 11
97.3901
 21
152.236
  0
LINE
  8
0
 10
97.3901
 20
152.236
 11
97.1284
 21
152.342
  0
LINE
  8
0
 10
97.1284
 20
152.342
 11
97.1253
 21
152.343
  0
LINE
  8
0
 10
97.1253
 20
152.343
 11
97.0908
 21
152.355
  0
LINE
  8
0
 10
97.0908
 20
152.355
 11
97.0871
 21
152.356
  0
LINE
  8
0
 10
97.0871
 20
152.356
 11
96.8147
 21
152.43
  0
LINE
  8
0
 10
96.8147
 20
152.43
 11
96.8114
 21
152.431
  0
LINE
  8
0
 10
96.8114
 20
152.431
 11
96.7758
 21
152.438
  0
LINE
  8
0
 10
96.7758
 20
152.438
 11
96.7719
 21
152.439
  0
LINE
  8
0
 10
96.7719
 20
152.439
 11
96.4927
 21
152.481
  0
LINE
  8
0
 10
96.4927
 20
152.481
 11
96.4894
 21
152.481
  0
LINE
  8
0
 10
96.4894
 20
152.481
 11
96.4532
 21
152.484
  0
LINE
  8
0
 10
96.4532
 20
152.484
 11
96.4492
 21
152.484
  0
LINE
  8
0
 10
96.4492
 20
152.484
 11
96.167
 21
152.493
  0
LINE
  8
0
 10
96.167
 20
152.493
 11
96.1637
 21
152.493
  0
LINE
  8
0
 10
96.1637
 20
152.493
 11
96.1274
 21
152.491
  0
LINE
  8
0
 10
96.1274
 20
152.491
 11
96.1234
 21
152.491
  0
LINE
  8
0
 10
96.1234
 20
152.491
 11
95.8421
 21
152.466
  0
LINE
  8
0
 10
95.8421
 20
152.466
 11
95.8389
 21
152.466
  0
LINE
  8
0
 10
95.8389
 20
152.466
 11
95.803
 21
152.46
  0
LINE
  8
0
 10
95.803
 20
152.46
 11
95.799
 21
152.459
  0
LINE
  8
0
 10
95.799
 20
152.459
 11
95.5227
 21
152.401
  0
LINE
  8
0
 10
95.5227
 20
152.401
 11
95.5196
 21
152.4
  0
LINE
  8
0
 10
95.5196
 20
152.4
 11
95.4846
 21
152.391
  0
LINE
  8
0
 10
95.4846
 20
152.391
 11
95.4807
 21
152.389
  0
LINE
  8
0
 10
95.4807
 20
152.389
 11
95.2132
 21
152.299
  0
LINE
  8
0
 10
95.2132
 20
152.299
 11
95.2102
 21
152.298
  0
LINE
  8
0
 10
95.2102
 20
152.298
 11
95.1767
 21
152.284
  0
LINE
  8
0
 10
95.1767
 20
152.284
 11
95.1729
 21
152.282
  0
LINE
  8
0
 10
95.1729
 20
152.282
 11
94.918
 21
152.161
  0
LINE
  8
0
 10
94.918
 20
152.161
 11
94.9152
 21
152.159
  0
LINE
  8
0
 10
94.9152
 20
152.159
 11
94.8835
 21
152.142
  0
LINE
  8
0
 10
94.8835
 20
152.142
 11
94.88
 21
152.139
  0
LINE
  8
0
 10
94.88
 20
152.139
 11
94.6412
 21
151.989
  0
LINE
  8
0
 10
94.6412
 20
151.989
 11
94.6386
 21
151.987
  0
LINE
  8
0
 10
94.6386
 20
151.987
 11
94.6092
 21
151.966
  0
LINE
  8
0
 10
94.6092
 20
151.966
 11
94.4787
 21
151.865
  0
LINE
  8
0
 10
94.4787
 20
151.865
 11
94.4787
 21
158.494
  0
LINE
  8
0
 10
94.4787
 20
158.494
 11
94.4798
 21
158.546
  0
LINE
  8
0
 10
94.4798
 20
158.546
 11
94.4821
 21
158.575
  0
LINE
  8
0
 10
94.4821
 20
158.575
 11
94.5077
 21
158.786
  0
LINE
  8
0
 10
94.5077
 20
158.786
 11
94.5144
 21
158.814
  0
LINE
  8
0
 10
94.5144
 20
158.814
 11
94.5734
 21
159.017
  0
LINE
  8
0
 10
94.5734
 20
159.017
 11
94.5844
 21
159.044
  0
LINE
  8
0
 10
94.5844
 20
159.044
 11
94.6752
 21
159.235
  0
LINE
  8
0
 10
94.6752
 20
159.235
 11
94.6902
 21
159.26
  0
LINE
  8
0
 10
94.6902
 20
159.26
 11
94.8106
 21
159.434
  0
LINE
  8
0
 10
94.8106
 20
159.434
 11
94.8292
 21
159.456
  0
LINE
  8
0
 10
94.8292
 20
159.456
 11
94.976
 21
159.609
  0
LINE
  8
0
 10
94.976
 20
159.609
 11
94.9978
 21
159.628
  0
LINE
  8
0
 10
94.9978
 20
159.628
 11
95.1674
 21
159.755
  0
LINE
  8
0
 10
95.1674
 20
159.755
 11
95.1917
 21
159.77
  0
LINE
  8
0
 10
95.1917
 20
159.77
 11
95.3794
 21
159.868
  0
LINE
  8
0
 10
95.3794
 20
159.868
 11
95.406
 21
159.879
  0
LINE
  8
0
 10
95.406
 20
159.879
 11
95.6069
 21
159.946
  0
LINE
  8
0
 10
95.6069
 20
159.946
 11
95.6351
 21
159.953
  0
LINE
  8
0
 10
95.6351
 20
159.953
 11
95.8441
 21
159.987
  0
LINE
  8
0
 10
95.8441
 20
159.987
 11
95.8741
 21
159.99
  0
LINE
  8
0
 10
95.8741
 20
159.99
 11
95.9787
 21
159.994
  0
LINE
  8
0
 10
95.9787
 20
159.994
 11
114.731
 21
159.994
  0
LINE
  8
0
 10
114.731
 20
159.994
 11
113.725
 21
159.512
  0
LINE
  8
0
 10
113.725
 20
159.512
 11
112.735
 21
158.996
  0
LINE
  8
0
 10
112.735
 20
158.996
 11
111.763
 21
158.447
  0
LINE
  8
0
 10
111.763
 20
158.447
 11
110.811
 21
157.866
  0
LINE
  8
0
 10
110.811
 20
157.866
 11
109.879
 21
157.252
  0
LINE
  8
0
 10
109.879
 20
157.252
 11
108.968
 21
156.608
  0
LINE
  8
0
 10
108.968
 20
156.608
 11
108.079
 21
155.933
  0
LINE
  8
0
 10
108.079
 20
155.933
 11
107.213
 21
155.228
  0
LINE
  8
0
 10
107.213
 20
155.228
 11
106.372
 21
154.495
  0
LINE
  8
0
 10
106.372
 20
154.495
 11
105.557
 21
153.733
  0
LINE
  8
0
 10
105.557
 20
153.733
 11
104.767
 21
152.945
  0
LINE
  8
0
 10
104.767
 20
152.945
 11
104.005
 21
152.13
  0
LINE
  8
0
 10
104.005
 20
152.13
 11
103.27
 21
151.29
  0
LINE
  8
0
 10
103.27
 20
151.29
 11
102.564
 21
150.425
  0
LINE
  8
0
 10
102.564
 20
150.425
 11
101.888
 21
149.537
  0
LINE
  8
0
 10
101.888
 20
149.537
 11
101.243
 21
148.627
  0
LINE
  8
0
 10
101.243
 20
148.627
 11
100.628
 21
147.696
  0
LINE
  8
0
 10
100.628
 20
147.696
 11
100.046
 21
146.744
  0
LINE
  8
0
 10
100.046
 20
146.744
 11
99.4957
 21
145.773
  0
LINE
  8
0
 10
99.4957
 20
145.773
 11
98.9787
 21
144.784
  0
LINE
  8
0
 10
98.9787
 20
144.784
 11
98.9787
 21
149.744
  0
LINE
  8
0
 10
158.001
 20
144.739
 11
157.491
 21
145.72
  0
LINE
  8
0
 10
157.491
 20
145.72
 11
156.948
 21
146.683
  0
LINE
  8
0
 10
156.948
 20
146.683
 11
156.372
 21
147.627
  0
LINE
  8
0
 10
156.372
 20
147.627
 11
155.766
 21
148.552
  0
LINE
  8
0
 10
155.766
 20
148.552
 11
155.129
 21
149.456
  0
LINE
  8
0
 10
155.129
 20
149.456
 11
154.462
 21
150.338
  0
LINE
  8
0
 10
154.462
 20
150.338
 11
153.766
 21
151.197
  0
LINE
  8
0
 10
153.766
 20
151.197
 11
153.041
 21
152.032
  0
LINE
  8
0
 10
153.041
 20
152.032
 11
152.289
 21
152.843
  0
LINE
  8
0
 10
152.289
 20
152.843
 11
151.51
 21
153.628
  0
LINE
  8
0
 10
151.51
 20
153.628
 11
150.705
 21
154.386
  0
LINE
  8
0
 10
150.705
 20
154.386
 11
149.875
 21
155.117
  0
LINE
  8
0
 10
149.875
 20
155.117
 11
149.022
 21
155.82
  0
LINE
  8
0
 10
149.022
 20
155.82
 11
148.145
 21
156.494
  0
LINE
  8
0
 10
148.145
 20
156.494
 11
158.479
 21
156.494
  0
LINE
  8
0
 10
158.479
 20
156.494
 11
158.479
 21
143.742
  0
LINE
  8
0
 10
158.479
 20
143.742
 11
158.001
 21
144.739
  0
LINE
  8
0
 10
154.491
 20
109.687
 11
155.153
 21
110.564
  0
LINE
  8
0
 10
155.153
 20
110.564
 11
155.785
 21
111.463
  0
LINE
  8
0
 10
155.785
 20
111.463
 11
156.387
 21
112.383
  0
LINE
  8
0
 10
156.387
 20
112.383
 11
156.958
 21
113.322
  0
LINE
  8
0
 10
156.958
 20
113.322
 11
157.497
 21
114.28
  0
LINE
  8
0
 10
157.497
 20
114.28
 11
158.004
 21
115.255
  0
LINE
  8
0
 10
158.004
 20
115.255
 11
158.479
 21
116.246
  0
LINE
  8
0
 10
158.479
 20
116.246
 11
158.479
 21
109.612
  0
LINE
  8
0
 10
158.479
 20
109.612
 11
153.8
 21
108.832
  0
LINE
  8
0
 10
153.8
 20
108.832
 11
154.491
 21
109.687
  0
LINE
  8
0
 10
103.906
 20
99.9938
 11
103.762
 21
101.195
  0
LINE
  8
0
 10
103.762
 20
101.195
 11
103.648
 21
102.399
  0
LINE
  8
0
 10
103.648
 20
102.399
 11
103.563
 21
103.605
  0
LINE
  8
0
 10
103.563
 20
103.605
 11
103.507
 21
104.813
  0
LINE
  8
0
 10
103.507
 20
104.813
 11
103.481
 21
106.022
  0
LINE
  8
0
 10
103.481
 20
106.022
 11
103.475
 21
106.174
  0
LINE
  8
0
 10
103.475
 20
106.174
 11
103.473
 21
106.212
  0
LINE
  8
0
 10
103.473
 20
106.212
 11
103.472
 21
106.215
  0
LINE
  8
0
 10
103.472
 20
106.215
 11
103.436
 21
106.51
  0
LINE
  8
0
 10
103.436
 20
106.51
 11
103.435
 21
106.514
  0
LINE
  8
0
 10
103.435
 20
106.514
 11
103.429
 21
106.55
  0
LINE
  8
0
 10
103.429
 20
106.55
 11
103.428
 21
106.554
  0
LINE
  8
0
 10
103.428
 20
106.554
 11
103.358
 21
106.842
  0
LINE
  8
0
 10
103.358
 20
106.842
 11
103.357
 21
106.846
  0
LINE
  8
0
 10
103.357
 20
106.846
 11
103.346
 21
106.882
  0
LINE
  8
0
 10
103.346
 20
106.882
 11
103.345
 21
106.885
  0
LINE
  8
0
 10
103.345
 20
106.885
 11
103.243
 21
107.163
  0
LINE
  8
0
 10
103.243
 20
107.163
 11
103.241
 21
107.168
  0
LINE
  8
0
 10
103.241
 20
107.168
 11
103.227
 21
107.202
  0
LINE
  8
0
 10
103.227
 20
107.202
 11
103.226
 21
107.205
  0
LINE
  8
0
 10
103.226
 20
107.205
 11
103.092
 21
107.47
  0
LINE
  8
0
 10
103.092
 20
107.47
 11
103.09
 21
107.474
  0
LINE
  8
0
 10
103.09
 20
107.474
 11
103.072
 21
107.506
  0
LINE
  8
0
 10
103.072
 20
107.506
 11
103.07
 21
107.509
  0
LINE
  8
0
 10
103.07
 20
107.509
 11
102.907
 21
107.757
  0
LINE
  8
0
 10
102.907
 20
107.757
 11
102.905
 21
107.761
  0
LINE
  8
0
 10
102.905
 20
107.761
 11
102.883
 21
107.791
  0
LINE
  8
0
 10
102.883
 20
107.791
 11
102.881
 21
107.793
  0
LINE
  8
0
 10
102.881
 20
107.793
 11
102.691
 21
108.021
  0
LINE
  8
0
 10
102.691
 20
108.021
 11
102.688
 21
108.025
  0
LINE
  8
0
 10
102.688
 20
108.025
 11
102.663
 21
108.052
  0
LINE
  8
0
 10
102.663
 20
108.052
 11
102.661
 21
108.054
  0
LINE
  8
0
 10
102.661
 20
108.054
 11
102.447
 21
108.259
  0
LINE
  8
0
 10
102.447
 20
108.259
 11
102.443
 21
108.262
  0
LINE
  8
0
 10
102.443
 20
108.262
 11
102.415
 21
108.287
  0
LINE
  8
0
 10
102.415
 20
108.287
 11
102.413
 21
108.289
  0
LINE
  8
0
 10
102.413
 20
108.289
 11
102.176
 21
108.468
  0
LINE
  8
0
 10
102.176
 20
108.468
 11
102.172
 21
108.471
  0
LINE
  8
0
 10
102.172
 20
108.471
 11
102.142
 21
108.492
  0
LINE
  8
0
 10
102.142
 20
108.492
 11
102.14
 21
108.493
  0
LINE
  8
0
 10
102.14
 20
108.493
 11
101.884
 21
108.644
  0
LINE
  8
0
 10
101.884
 20
108.644
 11
101.88
 21
108.647
  0
LINE
  8
0
 10
101.88
 20
108.647
 11
101.847
 21
108.665
  0
LINE
  8
0
 10
101.847
 20
108.665
 11
101.845
 21
108.666
  0
LINE
  8
0
 10
101.845
 20
108.666
 11
101.574
 21
108.786
  0
LINE
  8
0
 10
101.574
 20
108.786
 11
101.569
 21
108.789
  0
LINE
  8
0
 10
101.569
 20
108.789
 11
101.534
 21
108.803
  0
LINE
  8
0
 10
101.534
 20
108.803
 11
101.533
 21
108.803
  0
LINE
  8
0
 10
101.533
 20
108.803
 11
101.25
 21
108.892
  0
LINE
  8
0
 10
101.25
 20
108.892
 11
101.244
 21
108.894
  0
LINE
  8
0
 10
101.244
 20
108.894
 11
101.208
 21
108.904
  0
LINE
  8
0
 10
101.208
 20
108.904
 11
101.207
 21
108.905
  0
LINE
  8
0
 10
101.207
 20
108.905
 11
100.915
 21
108.961
  0
LINE
  8
0
 10
100.915
 20
108.961
 11
100.909
 21
108.962
  0
LINE
  8
0
 10
100.909
 20
108.962
 11
100.873
 21
108.968
  0
LINE
  8
0
 10
100.873
 20
108.968
 11
100.871
 21
108.968
  0
LINE
  8
0
 10
100.871
 20
108.968
 11
100.575
 21
108.991
  0
LINE
  8
0
 10
100.575
 20
108.991
 11
100.569
 21
108.991
  0
LINE
  8
0
 10
100.569
 20
108.991
 11
100.532
 21
108.993
  0
LINE
  8
0
 10
100.532
 20
108.993
 11
100.481
 21
108.994
  0
LINE
  8
0
 10
100.481
 20
108.994
 11
98.9787
 21
108.994
  0
LINE
  8
0
 10
98.9787
 20
108.994
 11
98.9787
 21
115.204
  0
LINE
  8
0
 10
98.9787
 20
115.204
 11
99.4957
 21
114.215
  0
LINE
  8
0
 10
99.4957
 20
114.215
 11
100.046
 21
113.244
  0
LINE
  8
0
 10
100.046
 20
113.244
 11
100.628
 21
112.292
  0
LINE
  8
0
 10
100.628
 20
112.292
 11
101.243
 21
111.36
  0
LINE
  8
0
 10
101.243
 20
111.36
 11
101.888
 21
110.45
  0
LINE
  8
0
 10
101.888
 20
110.45
 11
102.564
 21
109.562
  0
LINE
  8
0
 10
102.564
 20
109.562
 11
103.27
 21
108.698
  0
LINE
  8
0
 10
103.27
 20
108.698
 11
104.005
 21
107.858
  0
LINE
  8
0
 10
104.005
 20
107.858
 11
104.767
 21
107.043
  0
LINE
  8
0
 10
104.767
 20
107.043
 11
105.557
 21
106.254
  0
LINE
  8
0
 10
105.557
 20
106.254
 11
106.372
 21
105.493
  0
LINE
  8
0
 10
106.372
 20
105.493
 11
107.213
 21
104.759
  0
LINE
  8
0
 10
107.213
 20
104.759
 11
108.079
 21
104.055
  0
LINE
  8
0
 10
108.079
 20
104.055
 11
108.968
 21
103.38
  0
LINE
  8
0
 10
108.968
 20
103.38
 11
109.879
 21
102.735
  0
LINE
  8
0
 10
109.879
 20
102.735
 11
110.811
 21
102.122
  0
LINE
  8
0
 10
110.811
 20
102.122
 11
111.763
 21
101.54
  0
LINE
  8
0
 10
111.763
 20
101.54
 11
112.735
 21
100.992
  0
LINE
  8
0
 10
112.735
 20
100.992
 11
113.725
 21
100.476
  0
LINE
  8
0
 10
113.725
 20
100.476
 11
114.731
 21
99.9938
  0
LINE
  8
0
 10
114.731
 20
99.9938
 11
103.906
 21
99.9938
  0
LINE
  8
0
 10
142.226
 20
99.9938
 11
143.181
 21
100.45
  0
LINE
  8
0
 10
143.181
 20
100.45
 11
144.12
 21
100.936
  0
LINE
  8
0
 10
144.12
 20
100.936
 11
145.043
 21
101.452
  0
LINE
  8
0
 10
145.043
 20
101.452
 11
145.95
 21
101.998
  0
LINE
  8
0
 10
145.95
 20
101.998
 11
146.838
 21
102.572
  0
LINE
  8
0
 10
146.838
 20
102.572
 11
147.707
 21
103.175
  0
LINE
  8
0
 10
147.707
 20
103.175
 11
148.557
 21
103.805
  0
LINE
  8
0
 10
148.557
 20
103.805
 11
149.386
 21
104.461
  0
LINE
  8
0
 10
149.386
 20
104.461
 11
150.193
 21
105.145
  0
LINE
  8
0
 10
150.193
 20
105.145
 11
150.978
 21
105.853
  0
LINE
  8
0
 10
150.978
 20
105.853
 11
151.741
 21
106.587
  0
LINE
  8
0
 10
151.741
 20
106.587
 11
152.479
 21
107.344
  0
LINE
  8
0
 10
152.479
 20
107.344
 11
152.479
 21
101.433
  0
LINE
  8
0
 10
152.479
 20
101.433
 11
155.479
 21
100.933
  0
LINE
  8
0
 10
155.479
 20
100.933
 11
155.479
 21
99.9938
  0
LINE
  8
0
 10
155.479
 20
99.9938
 11
142.226
 21
99.9938
  0
ENDSEC
  0
SECTION
  2
OBJECTS
  0
DICTIONARY
  0
ENDSEC
  0
EOF
