<?xml version="1.0" encoding="utf-8"?>
<svg xmlns="http://www.w3.org/2000/svg"
     width="140.0000mm" height="161.0000mm"
     viewBox="0 0 140.0000 161.0000">
  <rect x="5.0000" y="5.0000" width="130.0000" height="151.0000" rx="8.0000" ry="8.0000"  fill="#FAFAFA" stroke="none" />
  <path d="M 14.4700 8.4700 L 88.0600 8.4700 A 1.4700 1.4700 0 0 1 89.5300 9.9400 L 89.5300 25.0600 A 1.4700 1.4700 0 0 1 88.0600 26.5300 L 9.9400 26.5300 A 1.4700 1.4700 0 0 1 8.4700 25.0600 L 8.4700 14.4700 A 6.0000 6.0000 0 0 1 14.4700 8.4700 Z"  fill="#F0F0F0" stroke="#333333" stroke-width="0.5" />
  <text x="49.0000" y="17.5000" font-family="Swis721 Blk BT, comic sans ms" font-size="5.0000" text-anchor="middle" dominant-baseline="middle" fill="#1A1A1A">Project</text>
  <path d="M 93.9400 8.4700 L 125.5300 8.4700 A 6.0000 6.0000 0 0 1 131.5300 14.4700 L 131.5300 25.0600 A 1.4700 1.4700 0 0 1 130.0600 26.5300 L 93.9400 26.5300 A 1.4700 1.4700 0 0 1 92.4700 25.0600 L 92.4700 9.9400 A 1.4700 1.4700 0 0 1 93.9400 8.4700 Z"  fill="#F0F0F0" stroke="#333333" stroke-width="0.5" />
  <text x="112.0000" y="17.5000" font-family="Swis721 Blk BT, comic sans ms" font-size="5.0000" text-anchor="middle" dominant-baseline="middle" fill="#1A1A1A">Date</text>
  <path d="M 9.9400 29.4700 L 88.0600 29.4700 A 1.4700 1.4700 0 0 1 89.5300 30.9400 L 89.5300 109.0600 A 1.4700 1.4700 0 0 1 88.0600 110.5300 L 9.9400 110.5300 A 1.4700 1.4700 0 0 1 8.4700 109.0600 L 8.4700 30.9400 A 1.4700 1.4700 0 0 1 9.9400 29.4700 Z"  fill="#FFFFFF" stroke="#2E2E2E" stroke-width="0.5" />
  <rect x="12.8800" y="36.1350" width="72.2400" height="0.3500"  fill="#BBBBBB" stroke="none" />
  <rect x="12.8800" y="42.1350" width="72.2400" height="0.3500"  fill="#BBBBBB" stroke="none" />
  <rect x="12.8800" y="48.1350" width="72.2400" height="0.3500"  fill="#BBBBBB" stroke="none" />
  <rect x="12.8800" y="54.1350" width="72.2400" height="0.3500"  fill="#BBBBBB" stroke="none" />
  <rect x="12.8800" y="60.1350" width="72.2400" height="0.3500"  fill="#BBBBBB" stroke="none" />
  <rect x="12.8800" y="66.1350" width="72.2400" height="0.3500"  fill="#BBBBBB" stroke="none" />
  <rect x="12.8800" y="72.1350" width="72.2400" height="0.3500"  fill="#BBBBBB" stroke="none" />
  <rect x="12.8800" y="78.1350" width="72.2400" height="0.3500"  fill="#BBBBBB" stroke="none" />
  <rect x="12.8800" y="84.1350" width="72.2400" height="0.3500"  fill="#BBBBBB" stroke="none" />
  <rect x="12.8800" y="90.1350" width="72.2400" height="0.3500"  fill="#BBBBBB" stroke="none" />
  <rect x="12.8800" y="96.1350" width="72.2400" height="0.3500"  fill="#BBBBBB" stroke="none" />
  <rect x="12.8800" y="102.1350" width="72.2400" height="0.3500"  fill="#BBBBBB" stroke="none" />
  <text x="11.4100" y="32.4100" font-family="Swis721 Blk BT, comic sans ms" font-size="4.5000" text-anchor="start" dominant-baseline="hanging" fill="#1A1A1A">Notes</text>
  <path d="M 93.9400 29.4700 L 130.0600 29.4700 A 1.4700 1.4700 0 0 1 131.5300 30.9400 L 131.5300 56.5600 A 1.4700 1.4700 0 0 1 130.0600 58.0300 L 93.9400 58.0300 A 1.4700 1.4700 0 0 1 92.4700 56.5600 L 92.4700 30.9400 A 1.4700 1.4700 0 0 1 93.9400 29.4700 Z"  fill="#FFFFFF" stroke="#2E2E2E" stroke-width="0.5" />
  <text x="112.0000" y="43.7500" font-family="Swis721 Blk BT, comic sans ms" font-size="5.0000" text-anchor="middle" dominant-baseline="middle" fill="#1A1A1A">Ref 1</text>
  <path d="M 93.9400 60.9700 L 130.0600 60.9700 A 1.4700 1.4700 0 0 1 131.5300 62.4400 L 131.5300 88.0600 A 1.4700 1.4700 0 0 1 130.0600 89.5300 L 93.9400 89.5300 A 1.4700 1.4700 0 0 1 92.4700 88.0600 L 92.4700 62.4400 A 1.4700 1.4700 0 0 1 93.9400 60.9700 Z"  fill="#FFFFFF" stroke="#2E2E2E" stroke-width="0.5" />
  <text x="112.0000" y="75.2500" font-family="Swis721 Blk BT, comic sans ms" font-size="5.0000" text-anchor="middle" dominant-baseline="middle" fill="#1A1A1A">Ref 2</text>
  <path d="M 93.9400 92.4700 L 130.0600 92.4700 A 1.4700 1.4700 0 0 1 131.5300 93.9400 L 131.5300 109.0600 A 1.4700 1.4700 0 0 1 130.0600 110.5300 L 93.9400 110.5300 A 1.4700 1.4700 0 0 1 92.4700 109.0600 L 92.4700 93.9400 A 1.4700 1.4700 0 0 1 93.9400 92.4700 Z"  fill="#FFFFFF" stroke="#2E2E2E" stroke-width="0.5" />
  <text x="112.0000" y="101.5000" font-family="Swis721 Blk BT, comic sans ms" font-size="5.0000" text-anchor="middle" dominant-baseline="middle" fill="#1A1A1A">Ref 3</text>
  <path d="M 9.9400 113.4700 L 130.0600 113.4700 A 1.4700 1.4700 0 0 1 131.5300 114.9400 L 131.5300 146.5300 A 6.0000 6.0000 0 0 1 125.5300 152.5300 L 14.4700 152.5300 A 6.0000 6.0000 0 0 1 8.4700 146.5300 L 8.4700 114.9400 A 1.4700 1.4700 0 0 1 9.9400 113.4700 Z"  fill="#FFFFFF" stroke="#2E2E2E" stroke-width="0.5" />
  <rect x="12.8800" y="121.1100" width="114.2400" height="0.3500"  fill="#BBBBBB" stroke="none" />
  <rect x="12.8800" y="128.6100" width="114.2400" height="0.3500"  fill="#BBBBBB" stroke="none" />
  <rect x="12.8800" y="136.1100" width="114.2400" height="0.3500"  fill="#BBBBBB" stroke="none" />
  <rect x="12.8800" y="143.6100" width="114.2400" height="0.3500"  fill="#BBBBBB" stroke="none" />
  <text x="11.4100" y="116.4100" font-family="Swis721 Blk BT, comic sans ms" font-size="4.5000" text-anchor="start" dominant-baseline="hanging" fill="#1A1A1A">Tasks</text>
  <rect x="5.0000" y="5.0000" width="130.0000" height="151.0000" rx="8.0000" ry="8.0000"  fill="none" stroke="#1A1A1A" stroke-width="0.8" />
</svg>
