<?xml version="1.0" encoding="utf-8"?>
<svg xmlns="http://www.w3.org/2000/svg"
     width="210.0000mm" height="297.0000mm"
     viewBox="0 0 210.0000 297.0000">

  <rect x="0" y="0" width="210.0000" height="297.0000" fill="white" stroke="none" />
  <rect x="8.0000" y="8.0000" width="194.0000" height="281.0000" fill="none" stroke="#1A1A1A" stroke-width="0.35" />
  <rect x="10.5000" y="10.5000" width="189.0000" height="276.0000" fill="none" stroke="#1A1A1A" stroke-width="0.7" />
  <line x1="8.0000" y1="261.0000" x2="202.0000" y2="261.0000" stroke="#1A1A1A" stroke-width="0.35" />
  <line x1="10.5000" y1="263.5000" x2="199.5000" y2="263.5000" stroke="#1A1A1A" stroke-width="0.7" />
  <line x1="101.5000" y1="261.0000" x2="101.5000" y2="286.5000" stroke="#1A1A1A" stroke-width="0.35" />
  <line x1="101.5000" y1="263.5000" x2="101.5000" y2="286.5000" stroke="#1A1A1A" stroke-width="0.7" />
  <line x1="139.5000" y1="261.0000" x2="139.5000" y2="286.5000" stroke="#1A1A1A" stroke-width="0.35" />
  <line x1="139.5000" y1="263.5000" x2="139.5000" y2="286.5000" stroke="#1A1A1A" stroke-width="0.7" />
  <line x1="169.5000" y1="261.0000" x2="169.5000" y2="286.5000" stroke="#1A1A1A" stroke-width="0.35" />
  <line x1="169.5000" y1="263.5000" x2="169.5000" y2="286.5000" stroke="#1A1A1A" stroke-width="0.7" />
  <text x="13.5000" y="275.0000" font-family="Swis721 Blk BT, comic sans ms" font-size="6.0000" font-weight="bold" text-anchor="start" dominant-baseline="middle" fill="#1A1A1A">a4_sheet</text>
  <text x="104.5000" y="271.0000" font-family="Swis721 Blk BT, comic sans ms" font-size="2.8000" font-weight="normal" text-anchor="start" dominant-baseline="middle" fill="#1A1A1A">Dimensions</text>
  <text x="104.5000" y="276.0000" font-family="Swis721 Blk BT, comic sans ms" font-size="3.5000" font-weight="bold" text-anchor="start" dominant-baseline="middle" fill="#1A1A1A">220.0 × 307.0 mm</text>
  <text x="142.5000" y="271.0000" font-family="Swis721 Blk BT, comic sans ms" font-size="2.8000" font-weight="normal" text-anchor="start" dominant-baseline="middle" fill="#1A1A1A">Scale</text>
  <text x="142.5000" y="276.0000" font-family="Swis721 Blk BT, comic sans ms" font-size="3.5000" font-weight="bold" text-anchor="start" dominant-baseline="middle" fill="#1A1A1A">0.808× (80.8%)</text>
  <text x="172.5000" y="271.0000" font-family="Swis721 Blk BT, comic sans ms" font-size="2.8000" font-weight="normal" text-anchor="start" dominant-baseline="middle" fill="#1A1A1A">Date</text>
  <text x="172.5000" y="276.0000" font-family="Swis721 Blk BT, comic sans ms" font-size="3.5000" font-weight="bold" text-anchor="start" dominant-baseline="middle" fill="#1A1A1A">2026-05-18</text>
  <text x="13.5000" y="281.0000" font-family="Swis721 Blk BT, comic sans ms" font-size="2.8000" font-weight="normal" text-anchor="start" dominant-baseline="middle" fill="#555555">a4_a4_sheet</text>
  <text x="105.0000" y="5.5000" font-family="Swis721 Blk BT, comic sans ms" font-size="2.8000" font-weight="normal" text-anchor="middle" dominant-baseline="middle" fill="#AA4400">SCALE 80.8%  (220.0×307.0 mm original)</text>
  <g transform="translate(16.1401,10.5000) scale(0.807818)">
    <rect x="5.0000" y="5.0000" width="210.0000" height="297.0000"  fill="#FAFAFA" stroke="#CCCCCC" stroke-width="0.2" />
      <rect x="15.0000" y="15.0000" width="190.0000" height="277.0000" rx="5.0000" ry="5.0000"  fill="#FFFFFF" stroke="#E0E0E0" stroke-width="0.2" />
      <text x="110.0000" y="35.0000" font-family="Inter, sans-serif" font-size="14.0000" text-anchor="middle" dominant-baseline="middle" fill="#444444">A4 Demo Sheet</text>
      <text x="110.0000" y="53.0000" font-family="Inter, sans-serif" font-size="7.0000" text-anchor="middle" dominant-baseline="middle" fill="#444444">oomlout SVG pipeline</text>
      <text x="207.0000" y="294.0000" font-family="JetBrains Mono, Fira Code, monospace" font-size="4.0000" text-anchor="end" dominant-baseline="middle" fill="#333333">v1.0</text>
      <polygon points="195.0000,21.0000 189.0000,29.0000 201.0000,29.0000"  fill="#F5F5F5" stroke="#999999" stroke-width="0.2" />
      <circle cx="25.0000" cy="25.0000" r="4.0000"  fill="#E8E8E8" stroke="#AAAAAA" stroke-width="0.2" />
      <path d="M 90.0000 279.0000 A 3.0000 3.0000 0 0 0 90.0000 285.0000 L 130.0000 285.0000 A 3.0000 3.0000 0 0 0 130.0000 279.0000 Z"  fill="#F0F0F0" stroke="#BBBBBB" stroke-width="0.2" />
  </g>
  <rect x="10.5000" y="10.5000" width="189.0000" height="248.0000" fill="none" stroke="#CCCCCC" stroke-width="0.25" stroke-dasharray="2,3" />
</svg>
